<?xml version="1.0" encoding="utf-8"?>
<!-- Generator: Adobe Illustrator 23.0.4, SVG Export Plug-In . SVG Version: 6.00 Build 0)  -->
<svg version="1.1" id="Layer_1" xmlns="http://www.w3.org/2000/svg" xmlns:xlink="http://www.w3.org/1999/xlink" x="0px" y="0px"
	 viewBox="0 0 553 553" style="enable-background:new 0 0 553 553;" xml:space="preserve">
<style type="text/css">
	.st0{clip-path:url(#SVGID_2_);}
	.st1{fill:#FFFFFF;}
	.st2{clip-path:url(#SVGID_4_);}
	.st3{fill:url(#SVGID_5_);}
	.st4{opacity:0.2;clip-path:url(#SVGID_7_);}
	.st5{fill:#C5C9D4;}
	.st6{fill:none;}
	.st7{fill:#FFB455;}
	.st8{font-family:'FiraSans-ExtraBold';}
	.st9{font-size:80px;}
	.st10{font-size:50px;}
</style>
<g>
	<g>
		<defs>
			<rect id="SVGID_1_" width="553" height="553"/>
		</defs>
		<clipPath id="SVGID_2_">
			<use xlink:href="#SVGID_1_"  style="overflow:visible;"/>
		</clipPath>
		<g class="st0">
			<rect x="14.4" y="73.1" class="st1" width="553" height="553"/>
			<g>
				<g>
					<defs>
						<rect id="SVGID_3_" x="-160.6" y="-5.4" width="903" height="549"/>
					</defs>
					<clipPath id="SVGID_4_">
						<use xlink:href="#SVGID_3_"  style="overflow:visible;"/>
					</clipPath>
					<g class="st2">
						
							<linearGradient id="SVGID_5_" gradientUnits="userSpaceOnUse" x1="-1.2801" y1="-493.4446" x2="1006.2301" y2="33.9349" gradientTransform="matrix(1 0 0 1 -175 518)">
							<stop  offset="0" style="stop-color:#412A7F"/>
							<stop  offset="1" style="stop-color:#8462B6"/>
						</linearGradient>
						<rect x="-160.6" y="-5.4" class="st3" width="903" height="549"/>
						<g>
							<g>
								<defs>
									<rect id="SVGID_6_" x="-160.6" y="-5.4" width="1152" height="864.1"/>
								</defs>
								<clipPath id="SVGID_7_">
									<use xlink:href="#SVGID_6_"  style="overflow:visible;"/>
								</clipPath>
								<g class="st4">
									<path class="st1" d="M991.4-5.4h-1152v864.1h1152V-5.4z"/>
									<path class="st5" d="M-1.2,519.3c-42.6,0-77.3,22.6-77.3,50.4c0,7.9,2.9,19.8,16.8,31.4l0.2,0.2
										c1.4,4.9,10.6,33.1,47.7,41.2c0.2,0,0.4,0.1,0.7,0.1c0.6,0,1.2-0.2,1.7-0.5s0.9-0.7,1.2-1.3c0.3-0.5,0.4-1.1,0.3-1.7
										c0-0.6-0.3-1.1-0.6-1.6c-4-5.2-6-11.8-5.5-18.4c4.9,0.6,9.9,1,14.8,1c37.2,0,77.3-19.3,77.3-50.4
										C76.1,541.9,41.5,519.3-1.2,519.3z M-1.2,615.8c-5.5-0.1-11-0.5-16.5-1.2l-2.2-0.3l-0.3,2.8c-1,7.2,0.6,14.5,4.4,20.6
										c-35.1-9-41.4-36.7-41.8-38l-0.1-0.6l-0.4-0.4c-0.3-0.3-0.6-0.6-1-0.8c-10.1-8.4-15.2-17.8-15.2-28
										c0-25.4,32.7-46.1,73-46.1s73,20.7,73,46.1C71.8,597.3,34.1,615.8-1.2,615.8L-1.2,615.8z"/>
									<path class="st5" d="M716.8,115.8c-0.1-0.2-0.3-0.3-0.4-0.3c-0.2,0-0.4,0-0.5,0.1l-23.7,14L641.5,101
										c-0.4-0.3-0.9-0.4-1.4-0.4s-1,0.1-1.4,0.4l-51.1,30c-0.4,0.3-0.8,0.6-1.1,1.1c-0.3,0.4-0.4,0.9-0.4,1.4l0.6,58.2l-23.7,14
										c-0.2,0.1-0.3,0.3-0.3,0.4c0,0.2,0,0.4,0.1,0.5l1.4,2.5c0.1,0.2,0.3,0.3,0.4,0.3c0.2,0,0.4,0,0.5-0.1l23.7-14l50.7,28.6
										c0.4,0.2,0.9,0.4,1.4,0.4s1-0.1,1.4-0.4l50.8-30.1c0.4-0.3,0.8-0.6,1.1-1.1c0.3-0.4,0.4-0.9,0.4-1.4l-0.6-58.2l23.7-14
										c0.1,0,0.2-0.1,0.2-0.2c0.1-0.1,0.1-0.2,0.1-0.3c0-0.1,0-0.2,0-0.3c0-0.1,0-0.2-0.1-0.3L716.8,115.8z M690.5,190.6
										l-49.4,29.2l-50-28.2l-0.6-57.4L640,105l49.9,28.2L690.5,190.6z"/>
									<path class="st5" d="M557.9,206.5h-2.4c-0.2,0-0.4,0.1-0.5,0.2c-0.1,0.1-0.2,0.3-0.2,0.5l0.1,14l-10.2-14.4
										c-0.1-0.1-0.2-0.2-0.3-0.2c-0.1-0.1-0.2-0.1-0.3-0.1h-2.6c-0.2,0-0.4,0.1-0.5,0.2c-0.1,0.1-0.1,0.1-0.2,0.2
										c0,0.1-0.1,0.2,0,0.3l0.2,20.7c0,0.1,0,0.2,0.1,0.3c0,0.1,0.1,0.2,0.2,0.2c0.1,0.1,0.1,0.1,0.2,0.2c0.1,0,0.2,0.1,0.3,0.1
										h2.4c0.1,0,0.2,0,0.3-0.1c0.1,0,0.2-0.1,0.2-0.2c0.1-0.1,0.1-0.1,0.2-0.2c0-0.1,0.1-0.2,0-0.3l-0.1-14l10.2,14.4
										c0.1,0.1,0.2,0.2,0.3,0.2c0.1,0.1,0.2,0.1,0.3,0.1h2.6c0.2,0,0.4-0.1,0.5-0.2c0.1-0.1,0.2-0.3,0.2-0.5l-0.2-20.7
										c0-0.1,0-0.2-0.1-0.3c0-0.1-0.1-0.2-0.2-0.2c-0.1-0.1-0.1-0.1-0.2-0.2S558,206.5,557.9,206.5z"/>
									<path class="st5" d="M307.4,513.8h-10.1v4.3h10.1c0.2,0,0.4-0.1,0.5-0.2c0.1-0.1,0.2-0.3,0.2-0.5v-2.9
										c0-0.2-0.1-0.4-0.2-0.5S307.6,513.8,307.4,513.8z"/>
									<path class="st5" d="M307.4,533.4h-10.1v4.3h10.1c0.2,0,0.4-0.1,0.5-0.2c0.1-0.1,0.2-0.3,0.2-0.5v-2.9
										c0-0.2-0.1-0.4-0.2-0.5S307.6,533.4,307.4,533.4z"/>
									<path class="st5" d="M326.1,556.1c-1.5-0.8-2.8-2-3.6-3.5c-0.9-1.5-1.3-3.2-1.3-4.9v-30.1c0.9-0.4,1.6-1.1,2.1-1.9
										c0.5-0.8,0.8-1.8,0.8-2.7v-4.8c0-1.4-0.5-2.7-1.5-3.6c-1-1-2.3-1.5-3.6-1.5h-21.4c-1.4,0-2.7,0.5-3.6,1.5
										c-1,1-1.5,2.3-1.5,3.6v4.8c0,1,0.3,1.9,0.8,2.7s1.2,1.5,2.1,1.9v30.1c0,1.7-0.5,3.4-1.3,4.9c-0.9,1.5-2.1,2.7-3.6,3.5
										c-7.4,4-13.2,10.3-16.5,18c-3.4,7.7-4.1,16.2-2,24.4c2.1,8.1,6.8,15.3,13.4,20.5c6.6,5.1,14.7,7.9,23.1,7.9
										s16.5-2.8,23.1-7.9c6.6-5.1,11.3-12.3,13.4-20.5s1.3-16.7-2-24.4C339.2,566.5,333.4,560.1,326.1,556.1L326.1,556.1z
										 M308.1,622.5c-7.4,0-14.6-2.5-20.4-7c-5.8-4.6-10-10.9-11.8-18.1c-1.8-7.2-1.2-14.8,1.8-21.5c3-6.8,8.1-12.4,14.6-15.9
										c2.2-1.2,4-3,5.3-5.1s1.9-4.6,1.9-7.1V514l-2.1-0.1c-0.2,0-0.4-0.1-0.6-0.3c-0.1-0.2-0.2-0.4-0.2-0.6v-4.8
										c0-0.2,0.1-0.4,0.2-0.6c0.2-0.2,0.4-0.2,0.6-0.2h21.3c0.2,0,0.4,0.1,0.6,0.2c0.2,0.2,0.2,0.4,0.2,0.6v4.8
										c0,0.2-0.1,0.4-0.2,0.6c-0.2,0.2-0.4,0.2-0.6,0.2l-1.4,0.1c-0.2,0-0.4,0.1-0.5,0.2c-0.1,0.1-0.2,0.3-0.2,0.5v33.1
										c0,2.5,0.7,4.9,1.9,7.1c1.3,2.1,3.1,3.9,5.3,5.1c6.5,3.5,11.7,9.1,14.6,15.9s3.6,14.4,1.8,21.5c-1.8,7.2-6,13.6-11.8,18.1
										S315.5,622.6,308.1,622.5L308.1,622.5z"/>
									<path class="st5" d="M258.7,62.6c2.2,0,4.4-0.5,6.3-1.6s3.6-2.6,4.8-4.5c1.2-1.9,1.9-4,2-6.2s-0.3-4.4-1.2-6.4L238-26.7
										V-81c1.4-0.5,2.5-1.4,3.4-2.6c0.8-1.2,1.3-2.6,1.3-4v-3.1c0-1.9-0.7-3.6-2.1-5c-1.3-1.3-3.1-2.1-5-2.1H201
										c-1.9,0-3.6,0.7-5,2.1c-1.3,1.3-2.1,3.1-2.1,5v3.1c0,1.4,0.4,2.9,1.3,4c0.8,1.2,2,2.1,3.4,2.6v54.4L166,44
										c-0.9,2-1.4,4.2-1.2,6.4c0.1,2.2,0.8,4.4,2,6.2c1.2,1.9,2.8,3.4,4.8,4.5c1.9,1.1,4.1,1.6,6.3,1.6L258.7,62.6z M266.7,45.7
										c0.6,1.3,0.9,2.8,0.8,4.3s-0.6,2.9-1.4,4.2c-0.8,1.2-1.9,2.3-3.2,3c-1.3,0.7-2.8,1.1-4.2,1.1h-80.6c-1.5,0-2.9-0.4-4.2-1.1
										c-1.3-0.7-2.4-1.7-3.2-3c-0.8-1.2-1.3-2.7-1.4-4.2c-0.1-1.5,0.2-3,0.8-4.3l33-71.3c0-0.1,0-0.2,0-0.3v-58.3
										c0-0.2-0.1-0.4-0.2-0.5c-0.1-0.1-0.3-0.2-0.5-0.2H201c-0.7,0-1.3-0.3-1.8-0.8s-0.7-1.2-0.7-1.9v-3.1c0-0.7,0.3-1.4,0.8-1.9
										s1.2-0.8,1.9-0.8h34.6c0.7,0,1.4,0.3,1.9,0.8s0.8,1.2,0.8,1.9v3.1c0,0.7-0.3,1.4-0.8,1.9s-1.1,0.8-1.8,0.8h-1.4
										c-0.2,0-0.4,0.1-0.5,0.2s-0.2,0.3-0.2,0.5v58.3c0,0.1,0,0.2,0,0.3L266.7,45.7z"/>
									<path class="st5" d="M204.8,5.2c-1.8-0.1-3.5-0.5-5-1.3c-1.6-0.8-3-1.9-4.1-3.3c-0.5-0.7-1.2-1.3-2-1.7s-1.6-0.7-2.5-0.8
										v-4.3c1.5,0.1,2.9,0.4,4.3,1.1c1.3,0.7,2.5,1.6,3.4,2.8c0.7,0.9,1.6,1.7,2.6,2.2s2.1,0.9,3.3,0.9c1.2-0.1,2.3-0.4,3.3-0.9
										s1.9-1.3,2.6-2.2c0.9-1.2,2.1-2.2,3.4-2.8c1.3-0.7,2.8-1,4.3-1s3,0.3,4.3,1s2.5,1.6,3.4,2.8c1.4,1.7,3.9,3.5,6.8,3.1h0.3
										c1.5,0,3.1-1.4,4.7-3c2.2-2,4.7-4.3,8.1-4.2L245.9-2c-1.6,0-3.2,1.4-5,3c-2,1.9-4.3,4-7.4,4.1c-3.7,0.5-7.4-1.1-10.5-4.4
										c-0.5-0.7-1.2-1.3-2-1.7s-1.6-0.7-2.5-0.8c-0.9,0.1-1.7,0.3-2.5,0.7s-1.5,1-2,1.7c-1.1,1.4-2.5,2.5-4.1,3.3
										C208.3,4.7,206.6,5.2,204.8,5.2L204.8,5.2z"/>
									<path class="st5" d="M183.2,83.6c-6.6,0-11.1,4.6-11.1,11.4s4.5,11.4,11.1,11.4s11.1-4.6,11.1-11.4
										C194.3,88.1,189.8,83.6,183.2,83.6z M183.2,102.7c-4.5,0-7.2-3-7.2-7.8s2.8-7.8,7.2-7.8s7.3,3,7.3,7.8
										S187.7,102.7,183.2,102.7z"/>
									<path class="st5" d="M75.9,178.8c-6.6,0-11.1,4.6-11.1,11.4s4.5,11.4,11.1,11.4S87,197,87,190.2S82.5,178.8,75.9,178.8z
										 M75.9,198c-4.5,0-7.2-3-7.2-7.8s2.8-7.8,7.2-7.8c4.4,0,7.3,3,7.3,7.8S80.4,198,75.9,198z"/>
									<path class="st5" d="M216.3,83.9h-2.4c-0.2,0-0.4,0.1-0.5,0.2s-0.2,0.3-0.2,0.5v8.5H203v-8.5c0-0.2-0.1-0.4-0.2-0.5
										c-0.1-0.1-0.3-0.2-0.5-0.2h-2.4c-0.2,0-0.4,0.1-0.5,0.2s-0.2,0.3-0.2,0.5v20.7c0,0.2,0.1,0.4,0.2,0.5
										c0.1,0.1,0.3,0.2,0.5,0.2h2.4c0.2,0,0.4-0.1,0.5-0.2s0.2-0.3,0.2-0.5v-8.5h10.2v8.5c0,0.2,0.1,0.4,0.2,0.5
										c0.1,0.1,0.3,0.2,0.5,0.2h2.4c0.2,0,0.4-0.1,0.5-0.2s0.2-0.3,0.2-0.5V84.6c0-0.1,0-0.2-0.1-0.3c0-0.1-0.1-0.2-0.2-0.2
										c-0.1-0.1-0.1-0.1-0.2-0.2C216.5,83.9,216.4,83.9,216.3,83.9z"/>
									<path class="st5" d="M109,179.2h-2.4c-0.2,0-0.4,0.1-0.5,0.2c-0.1,0.1-0.2,0.3-0.2,0.5v8.5H95.7v-8.5
										c0-0.2-0.1-0.4-0.2-0.5s-0.3-0.2-0.5-0.2h-2.4c-0.2,0-0.4,0.1-0.5,0.2s-0.2,0.3-0.2,0.5v20.6c0,0.2,0.1,0.4,0.2,0.5
										s0.3,0.2,0.5,0.2H95c0.2,0,0.4-0.1,0.5-0.2c0.1-0.1,0.2-0.3,0.2-0.5V192h10.2v8.5c0,0.2,0.1,0.4,0.2,0.5s0.3,0.2,0.5,0.2
										h2.4c0.2,0,0.4-0.1,0.5-0.2c0.1-0.1,0.2-0.3,0.2-0.5v-20.6c0-0.2-0.1-0.4-0.2-0.5C109.4,179.3,109.2,179.2,109,179.2z"/>
									<path class="st5" d="M166.4,87.2c0.1-0.2,0.1-0.4,0-0.5c0-0.1-0.1-0.2-0.2-0.2c-0.1-0.1-0.2-0.1-0.2-0.1l-51.2-16.7
										c-0.1,0-0.3,0-0.4,0s-0.2,0.1-0.3,0.2l-49.9,45.7L-7.9,92l-1.3,4.1l72.1,23.5l10.9,55.1c0,0.2,0.1,0.4,0.3,0.5
										c0.2,0.1,0.4,0.1,0.5,0.1l2.9-0.6c0.1,0,0.2-0.1,0.3-0.1c0.1-0.1,0.1-0.1,0.2-0.2c0.1-0.1,0.1-0.2,0.1-0.3s0-0.2,0-0.3
										l-10.9-55.1l48.3-44.3l49.1,16c0.2,0.1,0.4,0,0.5,0c0.2-0.1,0.3-0.2,0.4-0.4L166.4,87.2z"/>
									<path class="st5" d="M571.4,19.7l57.3-17c0.2-0.1,0.3-0.2,0.4-0.3c0.1-0.2,0.1-0.4,0-0.6C613.2-50,553.6-57.4,522.8-25
										c-7.6,8-12.9,17.9-15.5,28.6s-2.3,21.9,0.8,32.5c10,34,47.7,55.7,86.6,39.3c0.2-0.1,0.3-0.2,0.4-0.4c0.1-0.2,0.1-0.4,0-0.5
										L571.4,19.7z M582.1-38.6c9.6,2.3,18.5,7.1,25.8,13.7s12.8,15.1,16,24.5L569,15.9l-41.5-39.4c7.1-6.9,15.8-11.9,25.4-14.6
										C562.4-40.7,572.5-40.9,582.1-38.6L582.1-38.6z M512.3,34.9c-2.8-9.5-3.1-19.6-1-29.2C513.5-4,518-13,524.5-20.4l42.1,40
										l23,53.3c-7.5,2.9-15.6,4.3-23.7,3.9c-8.1-0.3-16-2.4-23.3-5.9c-7.3-3.6-13.7-8.6-19-14.8S514.6,42.7,512.3,34.9
										L512.3,34.9z"/>
									<path class="st5" d="M161.9-37.4c-0.6-0.6-1.4-1.1-2.2-1.4c-0.8-0.3-1.7-0.4-2.6-0.3l-44.6,5.7c-1.1,0.1-2.1,0.6-2.9,1.2
										c-0.8,0.7-1.5,1.6-1.8,2.6c-0.4,1-0.4,2.1-0.1,3.2s0.8,2,1.6,2.8l6.7,6.7L91.2,7.8l-18-17.9c-1-0.9-2.3-1.4-3.6-1.4
										S67-11,66-10.1L7.7,48.2c-0.9,1-1.5,2.3-1.5,3.6s0.5,2.6,1.5,3.6L26,73.8c1,0.9,2.3,1.5,3.6,1.5c1.3,0,2.6-0.5,3.6-1.5
										l36.5-36.4l17.8,17.8c1,0.9,2.3,1.5,3.6,1.5c1.3,0,2.6-0.5,3.6-1.5l46.6-46.6l6.7,6.7c0.8,0.8,1.7,1.3,2.8,1.6
										s2.2,0.2,3.2-0.1c1-0.4,2-1,2.6-1.9c0.7-0.9,1.1-1.9,1.2-3l5.7-44.6c0.1-0.9,0-1.8-0.3-2.6C163-36,162.6-36.8,161.9-37.4z
										 M153.6,11.5c0,0.3-0.1,0.6-0.3,0.8s-0.4,0.4-0.7,0.5s-0.6,0.1-0.8,0c-0.3-0.1-0.5-0.2-0.7-0.5L141.8,3
										c-0.1-0.1-0.3-0.2-0.5-0.2s-0.4,0.1-0.5,0.2L91.7,52.2c-0.2,0.2-0.4,0.2-0.6,0.2s-0.4-0.1-0.6-0.2L70.2,31.8
										c-0.1-0.1-0.1-0.1-0.2-0.2c-0.1,0-0.2-0.1-0.3-0.1c-0.1,0-0.2,0-0.3,0.1c-0.1,0-0.2,0.1-0.2,0.2L30.3,70.7
										c-0.1,0.1-0.2,0.1-0.3,0.2c-0.1,0-0.2,0.1-0.3,0.1c-0.1,0-0.2,0-0.3-0.1c-0.1,0-0.2-0.1-0.3-0.2L10.7,52.4
										c-0.2-0.2-0.2-0.4-0.2-0.6c0-0.2,0.1-0.4,0.2-0.6L69-7c0.2-0.1,0.4-0.2,0.6-0.2S70-7.1,70.2-7l20.5,20.5
										c0.1,0.1,0.1,0.1,0.2,0.2c0.1,0,0.2,0.1,0.3,0.1c0.1,0,0.2,0,0.3-0.1c0.1,0,0.2-0.1,0.2-0.2l29.8-29.8
										c0.1-0.1,0.2-0.3,0.2-0.5s-0.1-0.4-0.2-0.5l-9.3-9.3c-0.2-0.2-0.3-0.5-0.4-0.7c-0.1-0.3-0.1-0.6,0-0.8
										c0.1-0.3,0.3-0.5,0.5-0.7s0.5-0.3,0.7-0.3l44.6-5.7c0.2,0,0.5,0,0.7,0.1s0.4,0.2,0.6,0.4c0.2,0.2,0.3,0.4,0.4,0.6
										c0.1,0.2,0.1,0.4,0.1,0.7L153.6,11.5z"/>
									<path class="st5" d="M677.2,306.3c1,0,1.9-0.2,2.8-0.6c0.9-0.4,1.6-1,2.2-1.8c0.6-0.8,1-1.6,1.3-2.6c0.2-0.9,0.2-1.9,0-2.9
										c-1.6-7.3-5.4-13.9-11-18.8s-12.5-8-19.9-8.7c-1.4-3.5-3.6-6.6-6.4-9.1c-2.8-2.5-6.2-4.3-9.9-5.2
										c-3.9-6.2-9.5-11.1-16.2-14.1s-14.1-4-21.3-2.8s-13.9,4.5-19.3,9.5c-5.3,5-9.1,11.5-10.8,18.6c-5,0.2-9.8,1.8-14,4.6
										c-4.2,2.8-7.5,6.6-9.6,11.1c-5.4-0.8-10.9,0-15.9,2.2s-9.3,5.8-12.3,10.4c-0.7,1-1,2.1-1.1,3.3c-0.1,1.2,0.2,2.3,0.8,3.4
										c0.6,1,1.4,1.9,2.4,2.5s2.2,0.9,3.3,0.9h70c0.2,0,0.4-0.1,0.5-0.2s0.2-0.3,0.2-0.5v-2.9c0-0.2-0.1-0.4-0.2-0.5
										c-0.1-0.1-0.3-0.2-0.5-0.2h-70c-0.4,0-0.8-0.1-1.1-0.3c-0.3-0.2-0.6-0.5-0.8-0.8s-0.3-0.7-0.3-1.1s0.1-0.8,0.3-1.1
										c9.1-13.8,23.7-10.9,26.7-10.1c0.2,0,0.3,0,0.5-0.1s0.3-0.2,0.3-0.4c1.2-3,5.6-15.8,23.6-15.7c0.2,0,0.3,0,0.5-0.2
										c0.1-0.1,0.2-0.3,0.2-0.4c5.2-26.7,28.5-28.1,32.5-28.1c18.8,0,27.4,14.5,28.5,16.6c0,0.1,0.1,0.2,0.2,0.2
										c0.1,0.1,0.2,0.1,0.3,0.1c2,0.5,11.2,1.9,15.4,14.1c0,0.1,0.1,0.3,0.2,0.3c0.1,0.1,0.2,0.1,0.4,0.1
										c21.1,1.3,27.8,17.2,29.3,24.2c0.1,0.3,0.1,0.6,0,1c-0.1,0.3-0.2,0.6-0.4,0.9c-0.2,0.2-0.5,0.5-0.8,0.6s-0.6,0.2-0.9,0.2
										h-61c-0.2,0-0.4,0.1-0.5,0.2s-0.2,0.3-0.2,0.5v2.9c0,0.2,0.1,0.4,0.2,0.5c0.1,0.1,0.3,0.2,0.5,0.2L677.2,306.3z"/>
									<path class="st5" d="M226,162.9c-7.4-22-25-31.9-42.5-31.9h-2.2v19.9h2.1c17.2,0,22.5,14.7,23.6,18.2
										c0,0.1,0.1,0.2,0.1,0.2s0.1,0.1,0.2,0.2c0.1,0,0.2,0.1,0.3,0.1s0.2,0,0.3-0.1l17.5-5.8c0.2-0.1,0.3-0.2,0.4-0.4
										C226,163.2,226,163.1,226,162.9L226,162.9z M210,164.4c-2-4.9-5.3-9.2-9.6-12.3s-9.4-5-14.7-5.4v-11.3
										c7.7,0.4,15.1,3,21.3,7.5s11,10.7,13.7,17.9L210,164.4z"/>
									<path class="st5" d="M159.7,169.8l-18.9-6.1l0.7-2.1c2.9-8.9,8.5-16.6,16-22.1s16.6-8.4,26-8.4h2.2V151h-2.2
										c-5.1,0-10.1,1.6-14.3,4.7c-4.1,3-7.2,7.3-8.8,12.2L159.7,169.8z M146.3,160.9l10.7,3.5c2-4.9,5.3-9.2,9.6-12.3
										s9.4-5,14.7-5.4v-11.2c-7.7,0.4-15.1,3-21.3,7.5C153.9,147.5,149.1,153.7,146.3,160.9L146.3,160.9z"/>
									<path class="st5" d="M241.2,165.4l-18.2,5.9c-0.2,0.1-0.3,0.2-0.4,0.4c-0.1,0.2-0.1,0.4,0,0.5c1.1,2.8,1.6,5.8,1.7,8.9
										c0,4.1-1.1,8.1-3,11.7c-2,3.6-4.8,6.6-8.2,8.8c-0.1,0.1-0.1,0.1-0.2,0.2c0,0.1-0.1,0.2-0.1,0.3s0,0.2,0,0.3
										s0.1,0.2,0.1,0.3l10.8,14.9c0.1,0.2,0.3,0.3,0.5,0.3s0.4,0,0.5-0.1c3.3-2.3,19.4-14.2,19.4-36.6
										C244.1,175.8,243.1,170.4,241.2,165.4L241.2,165.4z M225,212.1l-6.6-9.1c3.2-2.7,5.7-6,7.4-9.8s2.6-7.9,2.7-12
										c0-2.3-0.3-4.6-0.8-6.8l10.7-3.5c0.9,3.3,1.3,6.8,1.3,10.2c0,5.9-1.3,11.8-3.9,17.1C233.3,203.6,229.6,208.3,225,212.1
										L225,212.1z"/>
									<path class="st5" d="M159.3,212.2l-1.8-1.3c-7.5-5.5-13.2-13.2-16-22.1c-2.9-8.9-2.9-18.4,0-27.3l0.7-2l18.9,6.1l-0.6,2.1
										c-0.8,2.4-1.2,5-1.2,7.5c0,3.8,0.9,7.6,2.7,11s4.3,6.4,7.4,8.6l1.7,1.3L159.3,212.2z M145,165c-2,7.4-1.7,15.3,0.6,22.6
										c2.4,7.3,6.8,13.8,12.8,18.6l6.6-9.1c-3.2-2.7-5.7-6-7.4-9.8s-2.6-7.9-2.6-12c0-2.3,0.3-4.6,0.8-6.8L145,165z"/>
									<path class="st5" d="M210.9,209.1l-10.8-14.9c-0.1-0.1-0.1-0.1-0.2-0.2c-0.1-0.1-0.2-0.1-0.3-0.1s-0.2,0-0.3,0
										s-0.2,0.1-0.3,0.1c-4.4,3.6-9.9,5.5-15.5,5.5c-5.1,0-10.1-1.6-14.3-4.7l-1.7-1.3l-11.7,16.1l1.7,1.3
										c7.5,5.5,16.6,8.5,25.9,8.5c9.8,0,19.4-3.3,27.1-9.3c0.1,0,0.2-0.1,0.2-0.2c0.1-0.1,0.1-0.2,0.1-0.3s0-0.2,0-0.3
										C211,209.3,210.9,209.2,210.9,209.1L210.9,209.1z M183.5,215.1c-7.7,0-15.2-2.2-21.6-6.4l6.6-9.1c4.5,2.8,9.7,4.3,15,4.3
										s10.5-1.5,15-4.3l6.6,9.1C198.8,212.9,191.2,215.1,183.5,215.1L183.5,215.1z"/>
									<path class="st5" d="M294.7,134.8c0-0.2-0.1-0.4-0.2-0.5s-0.3-0.2-0.5-0.2h-36.1c-0.1,0-0.2,0-0.4,0.1
										c-0.1,0.1-0.2,0.1-0.3,0.3L238,167l3.7,2.2l18.2-30.8H294c0.2,0,0.4-0.1,0.5-0.2c0.1-0.1,0.2-0.3,0.2-0.5V134.8z"/>
									<path class="st5" d="M294,142.7h-27.1c-0.4,0-0.7,0.3-0.7,0.7v2.9c0,0.4,0.3,0.7,0.7,0.7H294c0.4,0,0.7-0.3,0.7-0.7v-2.9
										C294.7,143,294.4,142.7,294,142.7z"/>
									<path class="st5" d="M294,151.3h-13.7c-0.4,0-0.7,0.3-0.7,0.7v2.9c0,0.4,0.3,0.7,0.7,0.7H294c0.4,0,0.7-0.3,0.7-0.7V152
										C294.7,151.6,294.4,151.3,294,151.3z"/>
									<path class="st5" d="M211,529.2h-46.8c-0.4,0-0.7,0.3-0.7,0.7v2.9c0,0.4,0.3,0.7,0.7,0.7H211c0.4,0,0.7-0.3,0.7-0.7v-2.9
										C211.8,529.5,211.4,529.2,211,529.2z"/>
									<path class="st5" d="M211,512h-46.8c-0.4,0-0.7,0.3-0.7,0.7v2.9c0,0.4,0.3,0.7,0.7,0.7H211c0.4,0,0.7-0.3,0.7-0.7v-2.9
										C211.8,512.3,211.4,512,211,512z"/>
									<path class="st5" d="M211,520.6h-46.8c-0.4,0-0.7,0.3-0.7,0.7v2.9c0,0.4,0.3,0.7,0.7,0.7H211c0.4,0,0.7-0.3,0.7-0.7v-2.9
										C211.8,520.9,211.4,520.6,211,520.6z"/>
									<path class="st5" d="M185.1,537.8h-20.9c-0.4,0-0.7,0.3-0.7,0.7v2.9c0,0.4,0.3,0.7,0.7,0.7h20.9c0.4,0,0.7-0.3,0.7-0.7
										v-2.9C185.8,538.1,185.5,537.8,185.1,537.8z"/>
									<path class="st5" d="M187.6,450.5c-15.4,0-30.5,4.6-43.3,13.2s-22.8,20.7-28.7,35c-5.9,14.2-7.4,29.9-4.4,45
										s10.4,29,21.3,39.9s24.8,18.3,39.9,21.3c15.1,3,30.8,1.5,45-4.4s26.4-15.9,35-28.7s13.1-27.9,13.1-43.3
										c0-20.7-8.2-40.5-22.9-55.1C228.1,458.7,208.3,450.5,187.6,450.5L187.6,450.5z M233.2,528.4c0,9-2.7,17.8-7.7,25.3
										S213.4,567,205,570.5c-8.3,3.4-17.5,4.3-26.3,2.6c-8.8-1.8-17-6.1-23.3-12.5c-6.4-6.4-10.7-14.5-12.5-23.3
										s-0.9-18,2.6-26.3s9.3-15.4,16.8-20.5c7.5-5,16.3-7.7,25.3-7.7c12.1,0,23.7,4.8,32.2,13.4S233.2,516.4,233.2,528.4
										L233.2,528.4z M114,528.4c0-19.1,7.5-37.5,20.8-51.2s31.5-21.7,50.6-22.3v23.7c-8.4,0.4-16.5,2.8-23.7,7.2
										c-7.2,4.4-13.1,10.4-17.3,17.7c-4.2,7.3-6.5,15.5-6.7,23.9s1.8,16.7,5.6,24.1l-20.5,11.9C117,552.6,114,540.6,114,528.4z
										 M187.6,602.1c-12.6,0-24.9-3.2-35.9-9.3s-20.2-14.9-26.8-25.6l20.5-11.9c4.5,7.1,10.7,12.9,18.1,17c7.4,4,15.6,6.2,24,6.2
										s16.7-2.1,24-6.2s13.6-9.9,18.1-17l20.5,11.9c-6.6,10.7-15.8,19.5-26.8,25.6C212.5,598.8,200.2,602,187.6,602.1
										L187.6,602.1z M231.9,551.5c3.9-7.4,5.8-15.7,5.7-24.1c-0.2-8.4-2.5-16.6-6.7-23.9s-10.2-13.4-17.3-17.7
										c-7.2-4.4-15.3-6.8-23.7-7.2v-23.7c12.5,0.4,24.8,3.9,35.6,10.4c10.8,6.4,19.7,15.5,26,26.4c6.3,10.9,9.7,23.2,9.8,35.7
										c0.2,12.6-2.9,24.9-8.8,36L231.9,551.5z"/>
									<path class="st5" d="M409.1,358.6h-34.9c-0.7,0-1.5-0.3-2-0.8c-0.3-0.3-0.5-0.6-0.6-0.9c-0.2-0.4-0.2-0.7-0.2-1.1v-69.6
										c0-0.8,0.3-1.5,0.8-2s1.3-0.8,2-0.8h34.9c0.8,0,1.5,0.3,2,0.8s0.8,1.3,0.8,2v69.6c0,0.8-0.3,1.5-0.8,2
										C410.6,358.3,409.9,358.6,409.1,358.6z M375.7,354.3h32.1v-66.7h-32.1V354.3z"/>
									<path class="st5" d="M427.3,376.8h-34.9c-0.8,0-1.5-0.3-2-0.8s-0.8-1.3-0.8-2v-69.6c0-0.8,0.3-1.5,0.8-2s1.3-0.8,2-0.8
										h34.9c0.8,0,1.5,0.3,2,0.8s0.8,1.3,0.8,2V374c0,0.8-0.3,1.5-0.8,2S428.1,376.8,427.3,376.8L427.3,376.8z M393.8,372.5h32.1
										v-66.7h-32.1V372.5z"/>
									<path class="st5" d="M375,283.9l-3,3.1l18.2,18.2l3.1-3.1L375,283.9z"/>
									<path class="st5" d="M411.2,284.2l-3.1,3.1l18.2,18.2l3.1-3.1L411.2,284.2z"/>
									<path class="st5" d="M375.3,354.8l-3.1,3.1l18.2,18.2l3.1-3.1L375.3,354.8z"/>
									<path class="st5" d="M411.4,355l-3.1,3.1l18.2,18.2l3.1-3.1L411.4,355z"/>
									<path class="st5" d="M14.5,230.3h-61.7c-0.8,0-1.5-0.3-2-0.9c-0.5-0.5-0.8-1.3-0.8-2v-61.7c0-0.8,0.3-1.5,0.8-2
										s1.3-0.8,2-0.8h61.7c0.8,0,1.5,0.3,2,0.8c0.3,0.3,0.5,0.6,0.6,0.9c0.1,0.4,0.2,0.7,0.2,1.1v61.7c0,0.8-0.3,1.5-0.8,2
										C16,230,15.3,230.3,14.5,230.3z M-45.8,226h58.9v-58.8h-58.9V226z"/>
									<path class="st5" d="M46.1,261.9h-61.7c-0.8,0-1.5-0.3-2-0.8s-0.8-1.3-0.8-2v-61.7c0-0.8,0.3-1.5,0.8-2s1.3-0.8,2-0.8h61.7
										c0.8,0,1.5,0.3,2,0.8s0.8,1.3,0.8,2V259c0,0.8-0.3,1.5-0.8,2S46.8,261.9,46.1,261.9z M-14.2,257.5h58.9v-58.8h-58.9
										C-14.2,198.7-14.2,257.5-14.2,257.5z"/>
									<path class="st5" d="M16.5,163.6l-3.1,3.1L45,198.3l3.1-3.1L16.5,163.6z"/>
									<path class="st5" d="M16.7,226.6l-3.1,3.1l31.6,31.6l3.1-3.1L16.7,226.6z"/>
									<path class="st5" d="M296.4,58.2c-0.6-0.4-1.3-0.7-2.1-0.7c-0.7,0-1.5,0.2-2.1,0.7c-5.3,3.9-22.5,17.8-22.5,34.7
										c0,6.5,2.6,12.7,7.2,17.3s10.8,7.2,17.3,7.2s12.7-2.6,17.3-7.2c4.6-4.6,7.2-10.8,7.2-17.3C318.9,76,301.6,62.1,296.4,58.2z
										 M294.4,113.1c-5.3,0-10.5-2.1-14.3-5.9s-5.9-8.9-5.9-14.3c0-14.6,15.8-27.6,20.2-30.9c4.3,3.3,20.2,16.2,20.2,30.9
										c0,5.3-2.1,10.5-5.9,14.3C304.9,111,299.8,113.1,294.4,113.1z"/>
									<path class="st5" d="M605.4,473.7c-13.6,0-26.9-4-38.3-11.6c-11.3-7.6-20.2-18.3-25.4-30.9s-6.6-26.4-3.9-39.8
										c2.7-13.4,9.2-25.6,18.8-35.3c9.6-9.6,21.9-16.2,35.3-18.9c13.4-2.7,27.2-1.3,39.8,3.9c12.6,5.2,23.3,14,30.9,25.4
										c7.6,11.3,11.6,24.6,11.6,38.3c0,18.3-7.3,35.8-20.2,48.7C641.2,466.4,623.7,473.6,605.4,473.7L605.4,473.7z M605.4,340.2
										c-12.8,0-25.2,3.8-35.9,10.9c-10.6,7.1-18.9,17.2-23.8,29c-4.9,11.8-6.2,24.8-3.7,37.3s8.6,24,17.7,33.1
										c9,9,20.5,15.2,33.1,17.7c12.5,2.5,25.5,1.2,37.3-3.7c11.8-4.9,21.9-13.2,29-23.8c7.1-10.6,10.9-23.1,10.9-35.9
										c0-17.1-6.8-33.5-18.9-45.6C639,347.1,622.6,340.3,605.4,340.2z"/>
									<path class="st5" d="M593.6,461.8L593.6,461.8c-0.8,0-1.5-0.2-2.2-0.6c-0.6-0.4-1.2-0.9-1.5-1.5l-5.2-10.7
										c-0.3-0.6-0.5-1.2-0.5-1.8l-1.4-11.4l-13.8-9.1c-0.6-0.4-1.1-0.9-1.5-1.5s-0.6-1.3-0.7-2l-1-10.1c0-0.1,0-0.1,0-0.2
										s-0.1-0.1-0.1-0.1l-9.4-8.4c-0.6-0.6-1.1-1.2-1.4-1.9l-6.6-12.3c-0.4-0.8-0.6-1.6-0.5-2.5l1.4-22l4.3,0.3l-1.4,22.3
										l6.6,12.3c0.2,0.3,0.4,0.5,0.6,0.8l9.3,8.4c0.9,0.8,1.5,1.9,1.6,3.1l1,10.1c0,0.1,0,0.1,0.1,0.2c0,0.1,0.1,0.1,0.1,0.2
										l14.3,9.5c0.9,0.8,1.4,1.8,1.4,3l1.5,11.5l5.1,10.5l10.1-13.8l5.4-25.5l-12.1-5.2c-0.2-0.1-0.4-0.2-0.7-0.3l-0.4-0.3
										l-7.2-6.8l-0.3,0.1l-9.1,1.3c-0.6,0.1-1.2,0.2-1.8,0.1s-1.1-0.3-1.6-0.6l-5.1-3.7c-0.4-0.3-0.8-0.6-1.1-1l-5.4-6.6
										c-0.6-0.8-0.9-1.7-0.9-2.6v-6c0-1.1,0.5-2.2,1.3-3.1c0.8-0.8,1.9-1.3,3.1-1.3h3.9c0.7,0,1.3,0.2,1.9,0.5
										c0.6,0.3,1.1,0.8,1.5,1.3l5.9,5.5h0.1h0.1l0.1-0.1v-0.1l-1.7-8.5c-0.1-1.1,0.2-2.2,0.8-3.1l6-9.1c0.5-0.8,1.3-1.3,2.2-1.6
										l10.1-3.1v-8.4l-6.8-2.5l-11.9,3.8c-0.7,0.2-1.5,0.3-2.3,0.1c-0.8-0.2-1.5-0.6-2-1.1l-6.9-6.7l3-3.1l6.9,6.7l11.9-3.8
										c0.9-0.3,2-0.3,2.9,0.1l6.8,2.6c0.8,0.3,1.5,0.9,2,1.6s0.8,1.6,0.8,2.5v8.4c0,0.9-0.3,1.8-0.9,2.5
										c-0.5,0.7-1.3,1.3-2.2,1.5l-10.1,3.1l-6,9.1l1.6,8.3c0.2,0.9,0.1,1.9-0.3,2.8c-0.4,0.9-1.1,1.6-1.9,2.1
										c-0.8,0.5-1.8,0.7-2.8,0.5c-1-0.1-1.8-0.5-2.5-1.2l-6.4-5.9l-0.2-0.3h-3.8v5.5l5.6,6.7l5.1,3.6l0.2-0.1l9.1-1.3
										c0.6-0.2,1.2-0.2,1.9-0.1c0.6,0.1,1.2,0.4,1.7,0.7l7.4,6.9l12.1,5.2c1,0.4,1.8,1.2,2.3,2.1c0.5,1,0.5,2.1,0.2,3.1L608,445
										c-0.1,0.3-0.2,0.6-0.4,0.9l-10.4,14c-0.4,0.6-0.9,1.1-1.6,1.4C595.1,461.7,594.4,461.8,593.6,461.8z"/>
									<path class="st5" d="M40.6,385.2c-2.9,0-5.7-0.8-8.1-2.4s-4.3-3.9-5.4-6.5c-1.1-2.7-1.4-5.6-0.8-8.4s1.9-5.4,4-7.5
										c2-2,4.6-3.4,7.5-4s5.8-0.3,8.4,0.8c2.7,1.1,4.9,3,6.5,5.4s2.5,5.2,2.4,8.1c0,3.9-1.5,7.6-4.3,10.3
										C48.1,383.7,44.4,385.2,40.6,385.2L40.6,385.2z M40.6,360.4c-2,0-4,0.6-5.7,1.7s-3,2.7-3.8,4.6s-1,3.9-0.6,5.9
										s1.4,3.8,2.8,5.2s3.3,2.4,5.2,2.8c2,0.4,4,0.2,5.9-0.6c1.9-0.8,3.5-2.1,4.6-3.8c1.1-1.7,1.7-3.7,1.7-5.7
										c0-1.3-0.3-2.7-0.8-3.9c-0.5-1.2-1.3-2.4-2.2-3.3c-0.9-1-2.1-1.7-3.3-2.2C43.2,360.7,41.9,360.4,40.6,360.4L40.6,360.4z"/>
									<path class="st5" d="M-3.7,314.9l-3.2,2.9l39.3,43.8l3.2-2.9L-3.7,314.9z"/>
									<path class="st5" d="M521,430c0,2.9-0.9,5.7-2.5,8.1s-3.9,4.3-6.5,5.4c-2.7,1.1-5.6,1.4-8.4,0.8s-5.4-1.9-7.4-4
										c-2-2-3.4-4.6-4-7.4s-0.3-5.7,0.8-8.4c1.1-2.7,3-4.9,5.4-6.5s5.2-2.5,8.1-2.5c3.9,0,7.6,1.5,10.3,4.3
										C519.5,422.5,521,426.2,521,430L521,430z M496.2,430c0,2,0.6,4,1.7,5.7s2.7,3,4.6,3.8s3.9,1,5.9,0.6s3.8-1.4,5.2-2.8
										s2.4-3.3,2.8-5.2c0.4-2,0.2-4-0.6-5.9s-2.1-3.5-3.8-4.6s-3.7-1.7-5.7-1.7c-2.7,0-5.3,1.1-7.2,3
										C497.3,424.7,496.2,427.3,496.2,430L496.2,430z"/>
									<path class="st5" d="M462.8,488.3c0,2.9-0.8,5.7-2.4,8.1s-3.9,4.3-6.5,5.4s-5.6,1.4-8.4,0.8s-5.4-1.9-7.5-4
										c-2-2-3.4-4.6-4-7.5c-0.6-2.8-0.3-5.8,0.8-8.4c1.1-2.7,3-4.9,5.4-6.5s5.2-2.5,8.1-2.5c3.9,0,7.6,1.5,10.3,4.3
										S462.8,484.4,462.8,488.3L462.8,488.3z M438,488.3c0,2,0.6,4,1.7,5.7s2.7,3,4.6,3.8s3.9,1,5.9,0.6s3.8-1.4,5.2-2.8
										c1.4-1.4,2.4-3.3,2.8-5.2c0.4-2,0.2-4-0.6-5.9c-0.8-1.9-2.1-3.5-3.8-4.6c-1.7-1.1-3.7-1.7-5.7-1.7c-1.3,0-2.7,0.3-3.9,0.8
										c-1.2,0.5-2.4,1.3-3.3,2.2c-0.9,1-1.7,2.1-2.2,3.3C438.2,485.6,438,486.9,438,488.3z"/>
									<path class="st5" d="M497.3,436.2l-42.6,42.6l3.1,3.1l42.6-42.6L497.3,436.2z"/>
									<path class="st5" d="M448.2,415.5c2.9,0,5.7,0.9,8.1,2.5s4.3,3.9,5.4,6.5c1.1,2.7,1.4,5.6,0.8,8.4s-1.9,5.4-4,7.4
										c-2,2-4.6,3.4-7.4,4s-5.7,0.3-8.4-0.8c-2.7-1.1-4.9-3-6.5-5.4s-2.5-5.2-2.5-8.1c0-3.9,1.5-7.6,4.3-10.3
										C440.6,417,444.3,415.5,448.2,415.5L448.2,415.5z M448.2,419.8c-2,0-4,0.6-5.7,1.7s-3,2.7-3.8,4.6s-1,3.9-0.6,5.9
										s1.4,3.8,2.8,5.2c1.4,1.4,3.3,2.4,5.2,2.8c2,0.4,4,0.2,5.9-0.6c1.9-0.8,3.5-2.1,4.6-3.8c1.1-1.7,1.7-3.7,1.7-5.7
										c0-2.7-1.1-5.3-3-7.2C453.5,420.9,450.9,419.8,448.2,419.8z"/>
									<path class="st5" d="M506.4,473.7c2.9,0,5.7,0.9,8.1,2.5s4.3,3.9,5.4,6.5c1.1,2.7,1.4,5.6,0.8,8.4c-0.6,2.8-1.9,5.4-4,7.4
										c-2,2-4.6,3.4-7.4,4c-2.8,0.6-5.7,0.3-8.4-0.8c-2.7-1.1-4.9-3-6.5-5.4s-2.4-5.2-2.4-8.1c0-3.9,1.5-7.6,4.3-10.3
										C498.9,475.3,502.6,473.7,506.4,473.7L506.4,473.7z M506.4,478c-2,0-4,0.6-5.7,1.7s-3,2.7-3.8,4.6s-1,3.9-0.6,5.9
										s1.4,3.8,2.8,5.2c1.4,1.4,3.3,2.4,5.2,2.8c2,0.4,4,0.2,5.9-0.6c1.9-0.8,3.5-2.1,4.6-3.8c1.1-1.7,1.7-3.7,1.7-5.7
										c0-2.7-1.1-5.3-3-7.2C511.8,479.1,509.2,478.1,506.4,478L506.4,478z"/>
									<path class="st5" d="M457.4,436.2l-3.1,3.1l42.6,42.6l3.1-3.1L457.4,436.2z"/>
									<path class="st5" d="M485.9,394.2c-7.9,0-15.7-2.4-22.3-6.8c-6.6-4.4-11.8-10.7-14.8-18s-3.8-15.4-2.3-23.2
										s5.4-14.9,11-20.6c5.6-5.6,12.8-9.4,20.6-11c7.8-1.6,15.9-0.8,23.2,2.3c7.3,3,13.6,8.2,18,14.8c4.4,6.6,6.8,14.4,6.8,22.3
										c0,10.6-4.2,20.8-11.8,28.4C506.8,389.9,496.6,394.1,485.9,394.2z M485.9,318.2c-7.1,0-14,2.1-19.9,6s-10.5,9.5-13.2,16.1
										c-2.7,6.5-3.4,13.8-2,20.7c1.4,7,4.8,13.3,9.8,18.3s11.4,8.4,18.3,9.8c7,1.4,14.2,0.7,20.7-2s12.1-7.3,16.1-13.2
										c3.9-5.9,6-12.8,6-19.9c0-9.5-3.8-18.6-10.5-25.3C504.5,322,495.4,318.2,485.9,318.2L485.9,318.2z"/>
									<path class="st5" d="M471.5,357l-3.1-3c3.4-3.6,7.1-6.8,11.2-9.6l2.5,3.5C478.2,350.7,474.7,353.7,471.5,357L471.5,357z"/>
									<path class="st5" d="M504.6,374.4l-0.1-4.3c5.1-0.1,10.2-0.9,15.1-2.3l1.2,4.1C515.6,373.5,510.2,374.3,504.6,374.4z"/>
									<path class="st5" d="M489.1,373.1c-3.2-0.6-6.3-1.4-9.4-2.4c-3.2-1-6.3-2.3-9.3-3.7l1.9-3.9c2.8,1.4,5.8,2.5,8.8,3.5
										c2.9,1,5.8,1.7,8.8,2.3L489.1,373.1z"/>
									<path class="st5" d="M497.1,379.9c-1.6,0-3.3-0.5-4.6-1.4c-1.4-0.9-2.4-2.2-3.1-3.7c-0.6-1.5-0.8-3.2-0.5-4.8
										c0.3-1.6,1.1-3.1,2.3-4.3c1.2-1.2,2.6-2,4.3-2.3c1.6-0.3,3.3-0.2,4.8,0.5c1.5,0.6,2.8,1.7,3.7,3.1c0.9,1.4,1.4,3,1.4,4.6
										c0,1.1-0.2,2.2-0.6,3.2s-1,1.9-1.8,2.7c-0.8,0.8-1.7,1.4-2.7,1.8C499.3,379.7,498.2,379.9,497.1,379.9z M497.1,367.6
										c-0.8,0-1.6,0.2-2.2,0.7c-0.7,0.4-1.2,1.1-1.5,1.8c-0.3,0.7-0.4,1.5-0.2,2.3c0.2,0.8,0.5,1.5,1.1,2c0.6,0.6,1.3,0.9,2,1.1
										s1.6,0.1,2.3-0.2c0.7-0.3,1.4-0.8,1.8-1.5s0.7-1.4,0.7-2.2c0-0.5-0.1-1.1-0.3-1.5c-0.2-0.5-0.5-0.9-0.9-1.3
										s-0.8-0.7-1.3-0.9S497.6,367.6,497.1,367.6L497.1,367.6z"/>
									<path class="st5" d="M487.1,350.2c-1.7,0-3.3-0.5-4.6-1.4c-1.4-0.9-2.4-2.2-3.1-3.7c-0.6-1.5-0.8-3.2-0.5-4.8
										c0.3-1.6,1.1-3.1,2.3-4.3c1.2-1.2,2.7-2,4.3-2.3c1.6-0.3,3.3-0.2,4.8,0.5c1.5,0.6,2.8,1.7,3.7,3.1c0.9,1.4,1.4,3,1.4,4.6
										c0,2.2-0.9,4.3-2.4,5.9C491.4,349.3,489.3,350.2,487.1,350.2L487.1,350.2z M487.1,337.9c-0.8,0-1.6,0.2-2.2,0.7
										c-0.7,0.4-1.2,1.1-1.5,1.8c-0.3,0.7-0.4,1.5-0.2,2.3c0.2,0.8,0.5,1.5,1.1,2.1s1.3,0.9,2.1,1.1c0.8,0.2,1.6,0.1,2.3-0.2
										c0.7-0.3,1.4-0.8,1.8-1.5s0.7-1.4,0.7-2.2c0-0.5-0.1-1-0.3-1.5c-0.2-0.5-0.5-0.9-0.9-1.3s-0.8-0.7-1.3-0.9
										C488.1,338,487.6,337.9,487.1,337.9z"/>
									<path class="st5" d="M464.6,369.7c-1.6,0-3.3-0.5-4.6-1.4c-1.4-0.9-2.4-2.2-3.1-3.7c-0.6-1.5-0.8-3.2-0.5-4.8
										c0.3-1.6,1.1-3.1,2.3-4.3c1.2-1.2,2.6-2,4.3-2.3c1.6-0.3,3.3-0.2,4.8,0.5c1.5,0.6,2.8,1.7,3.7,3.1c0.9,1.4,1.4,3,1.4,4.6
										c0,2.2-0.9,4.3-2.4,5.9C469,368.9,466.8,369.7,464.6,369.7L464.6,369.7z M464.6,357.4c-0.8,0-1.6,0.2-2.2,0.7
										c-0.7,0.4-1.2,1.1-1.5,1.8s-0.4,1.5-0.2,2.3c0.2,0.8,0.5,1.5,1.1,2c0.6,0.6,1.3,0.9,2.1,1.1c0.8,0.2,1.6,0.1,2.3-0.2
										c0.7-0.3,1.4-0.8,1.8-1.5s0.7-1.4,0.7-2.2c0-0.5-0.1-1-0.3-1.5c-0.2-0.5-0.5-0.9-0.9-1.3s-0.8-0.7-1.3-0.9
										S465.2,357.4,464.6,357.4L464.6,357.4z"/>
									<path class="st5" d="M458.3,378.5l-4.1-1.4c1.1-3.4,2.6-6.6,4.3-9.7l3.8,2.1C460.7,372.3,459.3,375.3,458.3,378.5
										L458.3,378.5z"/>
									<path class="st5" d="M457.1,358.7c-3.7-2.9-7-6.1-10-9.7l3.3-2.7c2.8,3.3,5.9,6.4,9.3,9L457.1,358.7z"/>
									<path class="st5" d="M494.9,340.8l-1.7-4c7.5-3.3,15.5-5.2,23.7-5.8l0.2,4.3C509.5,335.9,501.9,337.7,494.9,340.8
										L494.9,340.8z"/>
									<path class="st5" d="M506.2,386.7c-2.4-2.3-4.6-4.7-6.7-7.4l3.4-2.6c1.9,2.4,3.9,4.7,6.2,6.8L506.2,386.7z"/>
									<path class="st5" d="M491.3,365.7c-0.7-1.6-1.4-3.2-2-4.8c-1.4-3.6-2.4-7.3-3.2-11.1l4.2-0.9c0.7,3.6,1.8,7.1,3,10.5
										c0.6,1.5,1.2,3,1.9,4.5L491.3,365.7z"/>
									<path class="st5" d="M484.5,334.3c0-6.3,0.8-12.6,2.5-18.7l4.2,1.2c-1.6,5.7-2.4,11.6-2.3,17.5H484.5z"/>
									<path class="st5" d="M493.8-22.1c0.3-0.8,0.3-1.7,0.1-2.5c-0.2-0.8-0.7-1.6-1.3-2.1c-0.6-0.6-1.4-0.9-2.3-1.1
										c-0.8-0.1-1.7,0-2.5,0.3L420,2.6c-0.7,0.3-1.4,0.8-1.8,1.4c-0.5,0.6-0.8,1.4-0.8,2.2c-0.1,0.8,0.1,1.6,0.4,2.3
										c0.4,0.7,0.9,1.3,1.6,1.7L437,22c0.2,0.1,0.4,0.1,0.5,0.1s0.2-0.1,0.3-0.1c0.1-0.1,0.1-0.1,0.2-0.2l1.6-2.4
										c0.1-0.2,0.1-0.4,0.1-0.5c0-0.2-0.1-0.3-0.3-0.5L421.8,6.6l68-30l-21.1,61.6l-14.8-9.9c-0.2-0.1-0.3-0.1-0.5-0.1
										s-0.3,0.1-0.5,0.3l-7.2,9.3v-8.4c0-2.9,1.1-5.6,3.1-7.7l28.6-29.5c0.1-0.1,0.1-0.1,0.2-0.2c0-0.1,0.1-0.2,0.1-0.3
										s0-0.2-0.1-0.3c0-0.1-0.1-0.2-0.2-0.2l-2.1-2c-0.1-0.1-0.1-0.1-0.2-0.2c-0.1,0-0.2,0-0.3,0c-0.1,0-0.2,0-0.3,0.1
										c-0.1,0-0.2,0.1-0.2,0.2l-28.5,29.5c-2.8,2.9-4.3,6.7-4.3,10.7V40c0,0.7,0.2,1.5,0.6,2.1s1,1.1,1.7,1.3s1.5,0.3,2.2,0
										c0.7-0.2,1.3-0.6,1.8-1.2l6.5-8.5l12,8c0.5,0.4,1.2,0.6,1.8,0.7c0.6,0.1,1.3,0,1.9-0.2s1.2-0.6,1.7-1.1s0.8-1.1,1.1-1.7
										L493.8-22.1z"/>
									<path class="st5" d="M374.1,37.9c-0.1-0.2-0.3-0.3-0.5-0.3s-0.4,0-0.5,0.1l-2.4,1.6c-0.1,0.1-0.2,0.1-0.2,0.2
										c-0.1,0.1-0.1,0.2-0.1,0.3s0,0.2,0,0.3s0.1,0.2,0.1,0.3c1.1,1.7,2.3,3.3,3.6,4.9c0.1,0.1,0.1,0.1,0.2,0.2
										c0.1,0,0.2,0.1,0.3,0.1c0.2,0,0.4,0,0.5-0.2l2.2-1.9c0.1-0.1,0.2-0.3,0.3-0.5c0-0.2,0-0.4-0.2-0.5
										C376.2,41,375.1,39.4,374.1,37.9L374.1,37.9z"/>
									<path class="st5" d="M400.6,53.9c-1.8,0.1-3.5,0-5.3-0.3c-0.2,0-0.4,0-0.5,0.1c-0.2,0.1-0.3,0.3-0.3,0.5L394,57
										c0,0.2,0,0.4,0.1,0.5c0.1,0.2,0.3,0.3,0.5,0.3c1.7,0.3,3.5,0.4,5.2,0.4h1.1c0.2,0,0.4-0.1,0.5-0.2c0.1-0.1,0.1-0.2,0.1-0.2
										c0-0.1,0-0.2,0-0.3l-0.2-2.9c0-0.1,0-0.2,0-0.3s-0.1-0.2-0.2-0.2c-0.1-0.1-0.2-0.1-0.2-0.2
										C400.8,53.9,400.7,53.9,400.6,53.9L400.6,53.9z"/>
									<path class="st5" d="M414.2,49.9c-0.1-0.2-0.3-0.3-0.5-0.3s-0.4,0-0.5,0.1c-1.5,0.9-3.2,1.8-4.9,2.4
										c-0.2,0.1-0.3,0.2-0.4,0.4s-0.1,0.4,0,0.5l1,2.7c0.1,0.2,0.2,0.3,0.4,0.4c0.2,0.1,0.4,0.1,0.6,0c1.9-0.8,3.8-1.7,5.6-2.8
										c0.1,0,0.2-0.1,0.2-0.2c0.1-0.1,0.1-0.2,0.1-0.3c0-0.2,0-0.4-0.1-0.6L414.2,49.9z"/>
									<path class="st5" d="M387.7,51.1c-1.6-0.8-3.1-1.8-4.4-2.9c-0.1-0.1-0.3-0.2-0.5-0.2s-0.4,0.1-0.5,0.3l-1.8,2.2
										c-0.1,0.2-0.2,0.4-0.2,0.5c0,0.2,0.1,0.4,0.3,0.5c1.6,1.3,3.4,2.4,5.3,3.4c0.2,0.1,0.4,0.1,0.6,0s0.3-0.2,0.4-0.4L388,52
										c0.1-0.2,0.1-0.3,0-0.5C388,51.3,387.8,51.2,387.7,51.1L387.7,51.1z"/>
									<path class="st5" d="M425.2,40.9c-0.1-0.1-0.3-0.2-0.5-0.2s-0.4,0.1-0.5,0.2c-1.4,1.4-2.8,2.6-4.1,3.8
										c-0.1,0.1-0.2,0.3-0.2,0.5s0,0.4,0.2,0.5l1.8,2.2c0.1,0.1,0.1,0.1,0.2,0.2c0.1,0,0.2,0.1,0.3,0.1c0.2,0,0.4,0,0.5-0.2
										c1.4-1.3,3-2.6,4.4-4.1c0.1-0.1,0.2-0.3,0.2-0.5s-0.1-0.4-0.2-0.5L425.2,40.9z"/>
									<path class="st5" d="M367.3,25.4c0-0.1-0.1-0.2-0.2-0.2c-0.1-0.1-0.1-0.1-0.2-0.1s-0.2,0-0.3,0c-0.1,0-0.2,0-0.3,0.1
										l-2.6,1.2c-0.2,0.1-0.3,0.2-0.4,0.4c-0.1,0.2-0.1,0.4,0,0.6c0.9,1.9,1.8,3.7,2.6,5.3c0,0.1,0.1,0.2,0.2,0.2
										c0.1,0.1,0.2,0.1,0.2,0.1c0.2,0.1,0.4,0.1,0.5,0l2.5-1.3c0.2-0.1,0.3-0.2,0.3-0.4c0.1-0.2,0-0.4,0-0.5
										C369,28.9,368.2,27.2,367.3,25.4z"/>
									<path class="st5" d="M434.5,30c-0.2-0.1-0.3-0.2-0.5-0.1c-0.2,0-0.4,0.1-0.5,0.3c-1.2,1.6-2.4,3.1-3.5,4.5
										c-0.1,0.1-0.2,0.3-0.2,0.5s0.1,0.4,0.3,0.5l2.2,1.9c0.1,0.1,0.2,0.1,0.2,0.1c0.1,0,0.2,0,0.3,0c0.2,0,0.4-0.1,0.5-0.3
										c1.2-1.4,2.5-3.1,3.7-4.7c0.1-0.1,0.1-0.2,0.1-0.3s0-0.2,0-0.3c0-0.1,0-0.2-0.1-0.3c-0.1-0.1-0.1-0.2-0.2-0.2L434.5,30z"/>
									<path class="st5" d="M358.3,4.5c0.1-0.2,0.1-0.4,0-0.5c-0.7-1.8-1.4-3.6-2.3-5.4c-0.1-0.2-0.2-0.3-0.4-0.4
										c-0.1,0-0.2-0.1-0.3-0.1c-0.1,0-0.2,0-0.3,0.1l-2.6,1.1c-0.1,0-0.2,0.1-0.2,0.2c-0.1,0.1-0.1,0.1-0.2,0.2
										c0,0.1-0.1,0.2-0.1,0.3s0,0.2,0.1,0.3c0.8,1.8,1.4,3.6,2.2,5.4c0,0.1,0.1,0.2,0.2,0.2c0.1,0.1,0.1,0.1,0.2,0.2
										c0.1,0,0.2,0.1,0.3,0.1c0.1,0,0.2,0,0.3-0.1l2.7-1.1C358.1,4.8,358.3,4.7,358.3,4.5L358.3,4.5z"/>
									<path class="st5" d="M363.8,17.5c-0.7-1.8-1.4-3.6-2.2-5.4c-0.1-0.2-0.2-0.3-0.4-0.4s-0.4-0.1-0.6,0l-2.7,1.1
										c-0.2,0.1-0.3,0.2-0.4,0.4s-0.1,0.4,0,0.5c0.7,1.8,1.4,3.6,2.2,5.4c0.1,0.2,0.2,0.3,0.4,0.4c0.2,0.1,0.4,0.1,0.5,0l2.7-1.1
										c0.1,0,0.2-0.1,0.2-0.2c0.1-0.1,0.1-0.1,0.2-0.2c0-0.1,0.1-0.2,0.1-0.3C363.9,17.6,363.9,17.5,363.8,17.5L363.8,17.5z"/>
									<path class="st5" d="M327.5,17c-0.3-0.8-0.8-1.5-1.4-2c-0.7-0.5-1.5-0.8-2.3-0.8h-10.3l-3.4-10c-0.3-0.8-0.8-1.5-1.5-1.9
										c-0.7-0.5-1.5-0.7-2.3-0.7s-1.6,0.3-2.3,0.7c-0.7,0.5-1.2,1.2-1.5,1.9l-3.4,10h-10.4c-0.8,0-1.6,0.3-2.3,0.8
										c-0.7,0.5-1.2,1.2-1.4,2c-0.3,0.8-0.3,1.6,0,2.4s0.7,1.5,1.4,2l8.3,6.4l-3,9.8c-0.2,0.8-0.2,1.6,0,2.4
										c0.3,0.8,0.8,1.5,1.4,2c0.7,0.5,1.5,0.8,2.3,0.8s1.6-0.2,2.3-0.7l8.6-5.8l8.6,5.8c0.7,0.5,1.5,0.7,2.3,0.7
										c0.9,0,1.7-0.3,2.4-0.8c0.7-0.5,1.1-1.2,1.4-1.9c0.3-0.8,0.3-1.6,0-2.4l-3-9.8l8.3-6.5c0.7-0.5,1.1-1.2,1.4-2
										C327.8,18.7,327.8,17.8,327.5,17L327.5,17z M312.9,26.3l3.6,11.8l-10.2-6.9l-10.2,7l3.6-11.8l-10-7.7h12.5l4.1-12l4.1,12
										h12.5L312.9,26.3z"/>
									<path class="st5" d="M231.6,260.8c-0.3-0.8-0.8-1.5-1.4-2c-0.7-0.5-1.5-0.8-2.3-0.8h-10.3l-3.4-10
										c-0.3-0.8-0.8-1.5-1.5-1.9c-0.7-0.5-1.5-0.7-2.3-0.7s-1.6,0.3-2.3,0.7c-0.7,0.5-1.2,1.2-1.5,1.9l-3.4,10h-10.4
										c-0.8,0-1.6,0.3-2.3,0.8s-1.2,1.2-1.4,2c-0.3,0.8-0.3,1.6,0,2.4c0.2,0.8,0.7,1.5,1.4,2l8.3,6.4l-3,9.8
										c-0.2,0.8-0.2,1.6,0,2.4c0.3,0.8,0.8,1.5,1.4,2c0.7,0.5,1.5,0.8,2.3,0.8s1.6-0.2,2.3-0.7l8.6-5.8l8.6,5.8
										c0.7,0.5,1.5,0.7,2.3,0.7c0.9,0,1.7-0.3,2.4-0.8s1.1-1.2,1.4-1.9c0.3-0.8,0.3-1.6,0-2.4l-3-9.8l8.3-6.4
										c0.6-0.5,1.1-1.2,1.3-2C231.9,262.5,231.9,261.6,231.6,260.8z M216.9,270.1l3.6,11.8l-10.2-7l-10.2,7l3.6-11.8l-9.9-7.7
										h12.5l4.1-12l4.1,12H227L216.9,270.1z"/>
									<path class="st5" d="M521.6,95.9c-1.1-3.2-3-6.1-5.5-8.3c-2.5-2.3-5.6-3.8-8.9-4.5c-3.2-5.5-8.1-9.8-13.9-12.5
										c-5.8-2.6-12.2-3.5-18.5-2.4s-12,4.1-16.5,8.6s-7.6,10.2-8.7,16.4c-4.6-0.1-9,1.3-12.8,3.8s-6.7,6.2-8.4,10.4
										c-3.5-0.7-7-0.7-10.5,0.2c-3.4,0.8-6.6,2.4-9.4,4.7c-2.7,2.2-5,5-6.5,8.2s-2.3,6.7-2.3,10.2c0,6.3,2.5,12.3,7,16.8
										s10.5,7,16.8,7H520c7.6,0,15-3,20.5-8.3s8.7-12.6,8.9-20.2c0.2-7.6-2.6-15.1-7.7-20.7C536.4,99.7,529.2,96.4,521.6,95.9
										L521.6,95.9z M545,125.2c0,6.6-2.6,13-7.3,17.7s-11,7.3-17.7,7.3h-96.5c-5-0.3-9.7-2.4-13.1-6.1c-3.4-3.6-5.3-8.4-5.3-13.4
										s1.9-9.8,5.3-13.4s8.1-5.8,13.1-6.1c2.4,0,4.8,0.5,7.1,1.3c0.2,0.1,0.4,0.1,0.6,0s0.3-0.3,0.3-0.4
										c1.2-4.1,5.1-15.6,21.3-14.2c0.2,0,0.4,0,0.5-0.2c0.1-0.1,0.2-0.3,0.3-0.5c3-21.2,19.6-25.1,26.9-25.1
										c15.8,0,22.8,12.3,23.9,14.5c0.1,0.1,0.1,0.2,0.2,0.2c0.1,0.1,0.2,0.1,0.3,0.1c10.2,1.8,12.4,8.9,13.3,12.6
										c0,0.2,0.1,0.3,0.3,0.4c0.1,0.1,0.3,0.2,0.4,0.2C537,100.5,545,114.1,545,125.2z"/>
									<path class="st5" d="M443.4,111.7c-0.4,0-0.7,0.1-1,0.3c-0.3,0.2-0.5,0.5-0.6,0.8s-0.2,0.7-0.1,1s0.3,0.7,0.5,0.9
										c0.3,0.2,0.6,0.4,0.9,0.5s0.7,0,1-0.1s0.6-0.4,0.8-0.7c0.2-0.3,0.3-0.6,0.3-1c0-0.2-0.1-0.5-0.2-0.7s-0.2-0.4-0.4-0.6
										c-0.2-0.2-0.4-0.3-0.6-0.4C443.9,111.8,443.6,111.7,443.4,111.7L443.4,111.7z"/>
									<path class="st5" d="M444.4,118.3h-2.1c-0.3,0-0.6,0.3-0.6,0.6V137c0,0.3,0.3,0.6,0.6,0.6h2.1c0.3,0,0.6-0.3,0.6-0.6v-18
										C445,118.6,444.8,118.3,444.4,118.3z"/>
									<path class="st5" d="M469.2,109.8h-2.1c-0.2,0-0.3,0.1-0.4,0.2s-0.2,0.3-0.2,0.4v9.9l-1-0.7c-1.5-1.1-3.4-1.8-5.3-1.7
										c-1.2-0.1-2.5,0.1-3.6,0.6s-2.2,1.2-3,2.1c-1.6,2.1-2.3,4.7-2.2,7.3c0,6.1,3.6,10.1,9.2,10.1c1.8,0,3.6-0.5,5.1-1.4
										l0.9-0.6v1.1c0,0.2,0.1,0.3,0.2,0.4c0.1,0.1,0.3,0.2,0.4,0.2h1.9c0.2,0,0.3-0.1,0.4-0.2c0.1-0.1,0.2-0.3,0.2-0.4v-26.7
										c0-0.2-0.1-0.3-0.2-0.4C469.5,109.9,469.3,109.8,469.2,109.8L469.2,109.8z M466.4,132.6c-0.6,0.9-1.4,1.6-2.3,2
										c-0.9,0.5-1.9,0.7-3,0.7c-4.1,0-6.4-2.6-6.4-7.2c0-4.8,1.9-7.2,5.9-7.2c1.5,0,2.8,0.2,5.6,2.8l0.2,0.2L466.4,132.6
										L466.4,132.6z"/>
									<path class="st5" d="M485.9,117.8c-5.8,0-9.8,4.1-9.8,10.1c0,6,4,10.1,10,10.1c2.5,0.1,5.1-0.7,7.2-2
										c0.1,0,0.1-0.1,0.2-0.2s0.1-0.2,0.1-0.2c0-0.1,0-0.2,0-0.3s-0.1-0.2-0.1-0.2l-0.9-1.1c-0.1-0.1-0.2-0.2-0.4-0.2
										c-0.1,0-0.3,0-0.4,0.1c-1.8,1-3.8,1.4-5.8,1.4c-1.5,0.1-2.9-0.3-4.1-1.2s-2-2.1-2.4-3.5l-0.2-0.8h14.8
										c0.1,0,0.3-0.1,0.4-0.2c0.1-0.1,0.2-0.2,0.2-0.4c0.1-0.8,0.2-1.6,0.2-2.5C495.2,121,491.9,117.8,485.9,117.8z M492,127.2
										h-12.5l0.1-0.7c0-0.8,0.2-1.6,0.6-2.3c0.3-0.7,0.8-1.4,1.4-1.9s1.3-0.9,2.1-1.2c0.8-0.3,1.6-0.4,2.4-0.3c4.1,0,6,1.9,6,5.8
										L492,127.2z"/>
									<path class="st5" d="M510.1,117.9c-2.5,0-4.9,0.7-7,1.9c-0.1,0.1-0.2,0.2-0.3,0.3c-0.1,0.1,0,0.3,0,0.5l0.6,1.3
										c0,0.1,0.1,0.1,0.1,0.2c0.1,0.1,0.1,0.1,0.2,0.1s0.2,0.1,0.2,0.1c0.1,0,0.2,0,0.2-0.1c1.7-0.9,3.6-1.4,5.5-1.4
										c2.7,0,5.7,1.4,5.7,4.5v0.9l-0.8-0.2c-1.6-0.6-3.3-0.9-5-0.9c-5.1,0-8.4,2.6-8.4,6.6c0,4,3.2,6.6,7.7,6.6
										c2,0,4.1-0.5,5.8-1.7l0.9-0.6v1.2c0,0.2,0.1,0.3,0.2,0.4c0.1,0.1,0.3,0.2,0.4,0.2h1.9c0.2,0,0.3-0.1,0.4-0.2
										c0.1-0.1,0.2-0.3,0.2-0.4v-12C518.8,120.4,514.5,117.9,510.1,117.9z M515.5,132.6l-0.2,0.2c-0.7,0.8-1.6,1.5-2.6,1.9
										s-2.1,0.6-3.2,0.6c-2.5,0-5-1.2-5-3.8c0-2.9,2.9-3.9,5.5-3.9c1.8,0,3.5,0.4,5.1,1.2l0.3,0.2v3.6H515.5z"/>
									<path class="st5" d="M161.5,250.6c0-2.5-1-4.9-2.7-6.6c-1.8-1.8-4.1-2.7-6.6-2.7H77.7c-2.5,0-4.9,1-6.6,2.7
										c-1.8,1.8-2.7,4.1-2.7,6.6V325c0,2.5,1,4.9,2.7,6.6c1.8,1.8,4.1,2.7,6.6,2.7h3.9c9,11.4,22.1,19.3,38.1,22.8
										c0.2,0.1,0.4,0.1,0.7,0.1c0.6,0,1.2-0.2,1.7-0.5s0.9-0.7,1.2-1.3c0.3-0.5,0.4-1.1,0.3-1.7s-0.3-1.1-0.6-1.6
										c-3.9-5.1-5.9-11.4-5.5-17.8h34.7c2.5,0,4.9-1,6.6-2.7c1.8-1.8,2.7-4.1,2.7-6.6V250.6z M157.2,325c0,1.3-0.5,2.6-1.5,3.6
										c-0.9,0.9-2.2,1.5-3.6,1.5h-38c-0.2,0-0.3,0.1-0.5,0.2c-0.1,0.1-0.2,0.3-0.2,0.4c-1.2,7.5,0.3,15.2,4.3,21.6
										c-20.8-5.3-30-16.8-33.8-21.9c-0.1-0.1-0.2-0.2-0.3-0.2c-0.1-0.1-0.2-0.1-0.3-0.1h-5.8c-1.3,0-2.6-0.5-3.6-1.5
										c-0.9-0.9-1.5-2.2-1.5-3.6v-74.4c0-1.3,0.5-2.6,1.5-3.6c0.9-0.9,2.2-1.5,3.6-1.5H152c1.3,0,2.6,0.5,3.6,1.5
										c0.9,0.9,1.5,2.2,1.5,3.6V325H157.2z"/>
									<path class="st5" d="M145.8,259.8H84c-0.4,0-0.7,0.3-0.7,0.7v2.9c0,0.4,0.3,0.7,0.7,0.7h61.8c0.4,0,0.7-0.3,0.7-0.7v-2.9
										C146.5,260.1,146.2,259.8,145.8,259.8z"/>
									<path class="st5" d="M145.8,268.4H84c-0.4,0-0.7,0.3-0.7,0.7v2.9c0,0.4,0.3,0.7,0.7,0.7h61.8c0.4,0,0.7-0.3,0.7-0.7v-2.9
										C146.5,268.7,146.2,268.4,145.8,268.4z"/>
									<path class="st5" d="M145.8,277H84c-0.4,0-0.7,0.3-0.7,0.7v2.9c0,0.4,0.3,0.7,0.7,0.7h61.8c0.4,0,0.7-0.3,0.7-0.7v-2.9
										C146.5,277.3,146.2,277,145.8,277z"/>
									<path class="st5" d="M145.8,285.6H84c-0.4,0-0.7,0.3-0.7,0.7v2.9c0,0.4,0.3,0.7,0.7,0.7h61.8c0.4,0,0.7-0.3,0.7-0.7v-2.9
										C146.5,285.9,146.2,285.6,145.8,285.6z"/>
									<path class="st5" d="M145.8,294.2H84c-0.4,0-0.7,0.3-0.7,0.7v2.9c0,0.4,0.3,0.7,0.7,0.7h61.8c0.4,0,0.7-0.3,0.7-0.7v-2.9
										C146.5,294.5,146.2,294.2,145.8,294.2z"/>
									<path class="st5" d="M145.8,302.8H84c-0.4,0-0.7,0.3-0.7,0.7v2.9c0,0.4,0.3,0.7,0.7,0.7h61.8c0.4,0,0.7-0.3,0.7-0.7v-2.9
										C146.5,303.1,146.2,302.8,145.8,302.8z"/>
									<path class="st5" d="M145.8,311.4H84c-0.4,0-0.7,0.3-0.7,0.7v2.9c0,0.4,0.3,0.7,0.7,0.7h61.8c0.4,0,0.7-0.3,0.7-0.7v-2.9
										C146.5,311.7,146.2,311.4,145.8,311.4z"/>
									<path class="st5" d="M157.9,429.5c0-0.1-0.1-0.2-0.1-0.3c-0.1-0.1-0.1-0.1-0.2-0.2c-0.2-0.1-0.4-0.1-0.5,0
										c-1.9,0.6-3.8,1.2-5.6,1.9c-0.1,0-0.2,0.1-0.2,0.2c-0.1,0.1-0.1,0.1-0.2,0.2c0,0.1-0.1,0.2-0.1,0.3c0,0.1,0,0.2,0.1,0.3
										l1,2.7c0.1,0.2,0.2,0.3,0.4,0.4s0.4,0.1,0.5,0c1.7-0.6,3.5-1.3,5.3-1.8c0.2-0.1,0.3-0.2,0.4-0.3c0.1-0.2,0.1-0.4,0.1-0.5
										L157.9,429.5z"/>
									<path class="st5" d="M109.3,460.9c-0.1-0.1-0.1-0.1-0.2-0.2c-0.1,0-0.2-0.1-0.3-0.1c-0.2,0-0.4,0.1-0.5,0.2
										c-1.4,1.3-2.8,2.7-4.2,4c-0.1,0.1-0.1,0.1-0.2,0.2c0,0.1-0.1,0.2-0.1,0.3c0,0.1,0,0.2,0,0.3c0,0.1,0.1,0.2,0.2,0.2l2,2.1
										c0.1,0.1,0.1,0.1,0.2,0.2c0.1,0,0.2,0.1,0.3,0.1c0.1,0,0.2,0,0.3-0.1c0.1,0,0.2-0.1,0.2-0.2l4.1-4c0.1-0.1,0.1-0.1,0.2-0.2
										c0-0.1,0.1-0.2,0.1-0.3c0-0.1,0-0.2-0.1-0.3c0-0.1-0.1-0.2-0.2-0.2L109.3,460.9z"/>
									<path class="st5" d="M120,451.1c-0.1-0.1-0.1-0.1-0.2-0.2c-0.1,0-0.2-0.1-0.3-0.1c-0.2,0-0.4,0-0.5,0.2
										c-1.4,1.2-2.9,2.5-4.3,3.9c-0.1,0.1-0.1,0.1-0.2,0.2c0,0.1-0.1,0.2-0.1,0.3c0,0.1,0,0.2,0,0.3c0,0.1,0.1,0.2,0.1,0.2
										l1.9,2.1c0.1,0.1,0.1,0.1,0.2,0.2c0.1,0,0.2,0.1,0.3,0.1c0.1,0,0.2,0,0.3-0.1c0.1,0,0.2-0.1,0.2-0.2
										c1.4-1.4,2.9-2.6,4.3-3.8c0.1-0.1,0.2-0.3,0.2-0.5s0-0.4-0.2-0.5L120,451.1z"/>
									<path class="st5" d="M98.9,470.9c-0.1-0.1-0.1-0.1-0.2-0.2c-0.1,0-0.2-0.1-0.3-0.1c-0.1,0-0.2,0-0.3,0.1
										c-0.1,0-0.2,0.1-0.2,0.2c-1.4,1.3-2.8,2.6-4.2,3.9c-0.1,0.1-0.1,0.1-0.2,0.2c0,0.1-0.1,0.2-0.1,0.3c0,0.1,0,0.2,0.1,0.3
										c0,0.1,0.1,0.2,0.2,0.2l1.9,2.1c0.1,0.1,0.1,0.1,0.2,0.2c0.1,0,0.2,0.1,0.3,0.1c0.1,0,0.2,0,0.3,0c0.1,0,0.2-0.1,0.2-0.1
										c1.4-1.3,2.9-2.6,4.3-4c0.1-0.1,0.1-0.1,0.2-0.2c0-0.1,0.1-0.2,0.1-0.3c0-0.2-0.1-0.4-0.2-0.5L98.9,470.9z"/>
									<path class="st5" d="M131.6,442.2c-0.1-0.1-0.1-0.1-0.2-0.2c-0.1-0.1-0.2-0.1-0.3-0.1s-0.2,0-0.3,0s-0.2,0.1-0.3,0.1
										c-1.6,1.1-3.2,2.3-4.8,3.5c-0.1,0.1-0.2,0.3-0.3,0.5c0,0.1,0,0.2,0,0.3c0,0.1,0.1,0.2,0.1,0.3l1.8,2.3
										c0.1,0.2,0.3,0.2,0.5,0.3c0.2,0,0.4,0,0.5-0.1c1.5-1.2,3.1-2.3,4.6-3.3c0.2-0.1,0.3-0.3,0.3-0.5s0-0.4-0.1-0.5L131.6,442.2
										z"/>
									<path class="st5" d="M88.3,480.5c-0.1-0.1-0.1-0.1-0.2-0.2c-0.1,0-0.2-0.1-0.3-0.1c-0.1,0-0.2,0-0.3,0
										c-0.1,0-0.2,0.1-0.2,0.1c-1.5,1.3-3,2.4-4.4,3.5c-0.1,0.1-0.2,0.3-0.3,0.5c0,0.2,0,0.4,0.1,0.5l1.7,2.3
										c0.1,0.1,0.1,0.1,0.2,0.2c0.1,0,0.2,0.1,0.3,0.1c0.1,0,0.2,0,0.3,0c0.1,0,0.2-0.1,0.3-0.1c1.4-1.1,3-2.3,4.6-3.7
										c0.1-0.1,0.2-0.3,0.2-0.5c0-0.1,0-0.2,0-0.3c0-0.1-0.1-0.2-0.1-0.2L88.3,480.5z"/>
									<path class="st5" d="M172.2,426.6c0-0.2-0.1-0.4-0.3-0.5c-0.1-0.1-0.3-0.2-0.5-0.2c-2,0.2-3.9,0.6-5.9,0.9
										c-0.2,0-0.4,0.1-0.5,0.3c-0.1,0.2-0.1,0.4-0.1,0.5l0.6,2.9c0,0.2,0.1,0.4,0.3,0.5s0.4,0.1,0.5,0.1c1.8-0.3,3.7-0.6,5.5-0.9
										c0.2,0,0.4-0.1,0.5-0.3c0.1-0.1,0.2-0.3,0.2-0.5L172.2,426.6z"/>
									<path class="st5" d="M144.2,434.8c-0.1-0.2-0.2-0.3-0.4-0.4s-0.4-0.1-0.6,0c-1.7,0.9-3.5,1.8-5.2,2.8
										c-0.2,0.1-0.3,0.3-0.3,0.4c0,0.2,0,0.4,0.1,0.5l1.4,2.5c0,0.1,0.1,0.2,0.2,0.2c0.1,0.1,0.2,0.1,0.3,0.1s0.2,0,0.3,0
										s0.2,0,0.3-0.1c1.6-1,3.3-1.8,5-2.7c0.2-0.1,0.3-0.2,0.4-0.4c0.1-0.2,0-0.4,0-0.5L144.2,434.8z"/>
									<path class="st5" d="M76.8,488.9c-0.1-0.2-0.3-0.3-0.4-0.3c-0.2,0-0.4,0-0.5,0.1c-1.6,1-3.3,1.9-4.9,2.7
										c-0.2,0.1-0.3,0.2-0.4,0.4c-0.1,0.2,0,0.4,0,0.5l1.3,2.6c0.1,0.2,0.2,0.3,0.4,0.4c0.2,0.1,0.4,0.1,0.5,0
										c1.7-0.9,3.5-1.8,5.2-2.9c0.1,0,0.2-0.1,0.2-0.2c0.1-0.1,0.1-0.2,0.1-0.3c0.1-0.2,0.1-0.4,0-0.5L76.8,488.9z"/>
									<path class="st5" d="M22.2,493c-1.7-0.6-3.5-1.3-5.2-2c-0.2-0.1-0.4-0.1-0.5,0c-0.2,0.1-0.3,0.2-0.4,0.4l-1.2,2.6
										c-0.1,0.2-0.1,0.4,0,0.5c0,0.1,0.1,0.2,0.2,0.2c0.1,0.1,0.1,0.1,0.2,0.2c1.8,0.8,3.7,1.4,5.5,2.1c0.1,0,0.2,0,0.3,0
										c0.1,0,0.2,0,0.3-0.1c0.1,0,0.2-0.1,0.2-0.2c0.1-0.1,0.1-0.2,0.1-0.2l0.9-2.7c0.1-0.2,0-0.4,0-0.6
										C22.6,493.2,22.4,493.1,22.2,493L22.2,493z"/>
									<path class="st5" d="M35.8,496.5c-1.8-0.3-3.6-0.6-5.5-1.1c-0.2,0-0.4,0-0.5,0.1c-0.2,0.1-0.3,0.3-0.3,0.4l-0.7,2.8
										c0,0.1,0,0.2,0,0.3c0,0.1,0,0.2,0.1,0.3c0.1,0.2,0.3,0.3,0.5,0.3c1.9,0.5,3.9,0.9,5.9,1.2c0.1,0,0.2,0,0.3,0
										s0.2-0.1,0.3-0.1c0.1-0.1,0.1-0.1,0.2-0.2c0-0.1,0.1-0.2,0.1-0.3l0.4-2.9c0-0.2,0-0.4-0.1-0.5
										C36.1,496.6,36,496.5,35.8,496.5L35.8,496.5z"/>
									<path class="st5" d="M64.2,495.1c-0.1-0.2-0.2-0.3-0.4-0.4s-0.4-0.1-0.5,0c-1.7,0.6-3.5,1.1-5.3,1.4
										c-0.2,0-0.3,0.2-0.5,0.3c-0.1,0.2-0.1,0.4-0.1,0.5l0.6,2.9c0,0.2,0.2,0.4,0.3,0.5c0.2,0.1,0.4,0.1,0.5,0.1
										c1.9-0.4,3.9-1,5.8-1.6c0.2-0.1,0.3-0.2,0.4-0.4c0.1-0.2,0.1-0.4,0-0.6L64.2,495.1z"/>
									<path class="st5" d="M49.7,497.2c-1.1,0-2.3,0.1-3.5,0.1h-2.1c-0.2,0-0.4,0.1-0.5,0.2s-0.2,0.3-0.2,0.5l-0.1,2.9
										c0,0.2,0.1,0.4,0.2,0.5c0.1,0.1,0.1,0.1,0.2,0.2c0.1,0,0.2,0.1,0.3,0.1h2.1c1.3,0,2.6,0,3.9-0.1c0.2,0,0.4-0.1,0.5-0.2
										s0.1-0.2,0.1-0.2c0-0.1,0-0.2,0-0.3l-0.2-2.9c0-0.2-0.1-0.4-0.2-0.5C50.1,497.3,49.9,497.2,49.7,497.2z"/>
									<path class="st5" d="M388.7,83.6c0-2-0.8-3.9-2.2-5.4c-1.4-1.4-3.3-2.2-5.3-2.2h-38.5c-2,0-3.9,0.8-5.3,2.2
										c-1.4,1.4-2.2,3.3-2.2,5.4v3.5c0,1.6,0.5,3.1,1.4,4.4s2.2,2.3,3.8,2.8v129.3c0,5.7,2.3,11.2,6.3,15.3
										c4.1,4.1,9.5,6.3,15.3,6.3c5.7,0,11.2-2.3,15.3-6.3c4.1-4.1,6.3-9.5,6.3-15.3V94.3c1.5-0.5,2.8-1.5,3.8-2.8
										c0.9-1.3,1.4-2.9,1.4-4.4L388.7,83.6z M384.4,87.1c0,0.8-0.3,1.6-0.9,2.2s-1.4,1-2.2,1h-1.4c-0.2,0-0.4,0.1-0.5,0.2
										s-0.2,0.3-0.2,0.5v132.5c0,4.6-1.8,9-5.1,12.2c-3.2,3.2-7.6,5.1-12.2,5.1s-9-1.8-12.2-5.1c-3.2-3.2-5.1-7.6-5.1-12.2V214
										h16.6c0.2,0,0.4-0.1,0.5-0.2c0.1-0.1,0.2-0.3,0.2-0.5v-2.9c0-0.2-0.1-0.4-0.2-0.5s-0.3-0.2-0.5-0.2h-16.6v-15.5h8.6
										c0.2,0,0.4-0.1,0.5-0.2c0.1-0.1,0.2-0.3,0.2-0.5v-2.9c0-0.2-0.1-0.4-0.2-0.5s-0.3-0.2-0.5-0.2h-8.6v-15.6h16.6
										c0.2,0,0.4-0.1,0.5-0.2c0.1-0.1,0.2-0.3,0.2-0.5v-2.9c0-0.2-0.1-0.4-0.2-0.5s-0.3-0.2-0.5-0.2h-16.6v-15.6h8.6
										c0.2,0,0.4-0.1,0.5-0.2c0.1-0.1,0.2-0.3,0.2-0.5v-2.9c0-0.2-0.1-0.4-0.2-0.5s-0.3-0.2-0.5-0.2h-8.6v-15.6h16.6
										c0.2,0,0.4-0.1,0.5-0.2c0.1-0.1,0.2-0.3,0.2-0.5v-2.9c0-0.2-0.1-0.4-0.2-0.5s-0.3-0.2-0.5-0.2h-16.6v-15.6h8.6
										c0.2,0,0.4-0.1,0.5-0.2s0.2-0.3,0.2-0.5V111c0-0.2-0.1-0.4-0.2-0.5s-0.3-0.2-0.5-0.2h-8.6V94.6h16.6c0.2,0,0.4-0.1,0.5-0.2
										s0.2-0.3,0.2-0.5v-2.8c0-0.2-0.1-0.4-0.2-0.5s-0.3-0.2-0.5-0.2h-18.7c-0.8,0-1.6-0.4-2.2-1s-0.9-1.4-0.9-2.2v-3.5
										c0-0.9,0.3-1.7,0.9-2.3c0.6-0.6,1.4-1,2.3-1h38.5c0.9,0,1.7,0.3,2.3,1c0.6,0.6,0.9,1.4,0.9,2.3L384.4,87.1z"/>
									<path class="st5" d="M351.5,530.5c0,0.6,0.1,1.2,0.4,1.8c0.2,0.6,0.6,1.1,1.1,1.5l22.8,22.8c0.4,0.5,1,0.8,1.6,1.1
										c0.6,0.2,1.2,0.4,1.9,0.4c0.7,0,1.3-0.1,2-0.4c0.6-0.3,1.2-0.7,1.7-1.1l3.1-3.1c0.5-0.4,0.9-1,1.1-1.6
										c0.3-0.6,0.4-1.2,0.4-1.9c0-0.6-0.1-1.3-0.3-1.9c-0.2-0.6-0.6-1.2-1-1.6l-8.6-8.6h26.8c1.3,0,2.6-0.5,3.5-1.5
										c0.9-0.9,1.5-2.2,1.5-3.5v-4.6c0-1.3-0.5-2.6-1.5-3.5c-0.9-0.9-2.2-1.5-3.5-1.5h-26.8l8.5-8.5c0.9-0.9,1.4-2.2,1.4-3.5
										s-0.5-2.6-1.4-3.5l-3.2-3.2c-0.9-0.9-2.2-1.5-3.5-1.5s-2.6,0.5-3.5,1.5l-22.7,22.6C352,528.1,351.6,529.3,351.5,530.5
										L351.5,530.5z M356,530.2l22.7-22.6c0.1-0.1,0.3-0.2,0.4-0.2c0.2,0,0.3,0.1,0.5,0.2l3.2,3.2c0.1,0.1,0.2,0.3,0.2,0.5
										s-0.1,0.3-0.2,0.5L367,527.6h37.2c0.2,0,0.3,0.1,0.5,0.2c0.1,0.1,0.2,0.3,0.2,0.5v4.6c0,0.2-0.1,0.3-0.2,0.5
										c-0.1,0.1-0.1,0.1-0.2,0.1s-0.2,0-0.2,0H367l15.9,15.9c0.3,0.3,0,0.7-0.1,0.9l-3.1,3.1c-0.2,0.2-0.6,0.4-0.9,0.1L356,530.8
										c-0.1-0.1-0.1-0.2-0.1-0.3S355.9,530.3,356,530.2z"/>
									<path class="st5" d="M99.9,427.6c0.2-0.1,0.3-0.2,0.4-0.3c0.1-0.2,0.1-0.3,0.1-0.5l-1.4-6.4c0-0.2-0.1-0.3-0.3-0.4
										c-0.1-0.1-0.3-0.1-0.5-0.1l-4.8,0.7c-0.8-2.2-1.9-4.3-3.1-6.2l3.3-3.5c0.1-0.1,0.2-0.3,0.2-0.5s-0.1-0.4-0.2-0.5l-4.3-4.8
										c-0.1-0.1-0.3-0.2-0.5-0.2s-0.4,0-0.5,0.1l-3.7,3c-1.8-1.5-3.8-2.7-5.8-3.8l1.2-4.7c0-0.2,0-0.4-0.1-0.5
										c-0.1-0.2-0.2-0.3-0.4-0.3l-6.2-2c-0.2-0.1-0.4,0-0.5,0c-0.2,0.1-0.3,0.2-0.4,0.4l-1.8,4.5c-1.7-0.3-3.3-0.4-5-0.5
										c-0.6,0-1.3,0-1.9,0.1l-1.3-4.7c-0.1-0.2-0.2-0.3-0.3-0.4c-0.2-0.1-0.3-0.1-0.5-0.1l-6.4,1.4c-0.2,0-0.3,0.1-0.4,0.3
										c-0.1,0.1-0.1,0.3-0.1,0.5l0.7,4.8c-2.2,0.8-4.3,1.9-6.2,3.2l-3.5-3.4c-0.1-0.1-0.3-0.2-0.5-0.2s-0.4,0.1-0.5,0.2l-4.8,4.3
										c-0.1,0.1-0.2,0.3-0.2,0.5s0,0.4,0.1,0.5l3,3.8c-1.5,1.8-2.7,3.8-3.8,5.8l-4.7-1.2c-0.2,0-0.4,0-0.5,0.1
										c-0.2,0.1-0.3,0.2-0.3,0.4l-2,6.2c-0.1,0.2,0,0.4,0,0.5c0.1,0.2,0.2,0.3,0.4,0.4l4.5,1.8c-0.3,1.7-0.4,3.3-0.5,5
										c0,0.6,0,1.3,0.1,1.9l-4.7,1.3c-0.2,0.1-0.3,0.2-0.4,0.3c-0.1,0.2-0.1,0.3-0.1,0.5l1.4,6.4c0,0.2,0.1,0.3,0.3,0.4
										c0.1,0.1,0.3,0.1,0.5,0.1l4.8-0.7c0.8,2.2,1.9,4.3,3.2,6.2l-3.4,3.5c-0.1,0.1-0.2,0.3-0.2,0.5s0.1,0.4,0.2,0.5l4.3,4.8
										c0.1,0.1,0.3,0.2,0.5,0.2s0.4,0,0.5-0.2l3.8-3c1.8,1.5,3.8,2.7,5.8,3.8l-1.2,4.7c0,0.2,0,0.4,0.1,0.5
										c0.1,0.2,0.2,0.3,0.4,0.3l6.2,2c0.2,0.1,0.4,0,0.5,0c0.2-0.1,0.3-0.2,0.4-0.4l1.8-4.5c1.7,0.3,3.3,0.4,5,0.5
										c0.6,0,1.3,0,1.9-0.1l1.3,4.7c0.1,0.2,0.2,0.3,0.3,0.4c0.2,0.1,0.3,0.1,0.5,0.1l6.4-1.4c0.2,0,0.3-0.1,0.4-0.3
										c0.1-0.1,0.1-0.3,0.1-0.5l-0.7-4.8c2.2-0.8,4.3-1.9,6.2-3.2l3.5,3.4c0.1,0.1,0.3,0.2,0.5,0.2s0.4-0.1,0.5-0.2l4.8-4.3
										c0.1-0.1,0.2-0.3,0.2-0.5s0-0.4-0.1-0.5l-3-3.8c1.5-1.8,2.7-3.8,3.8-5.8l4.7,1.2c0.2,0,0.4,0,0.5-0.1
										c0.2-0.1,0.3-0.2,0.3-0.4l2-6.2c0.1-0.2,0-0.4,0-0.5c-0.1-0.2-0.2-0.3-0.4-0.4l-4.5-1.8c0.3-1.7,0.4-3.3,0.5-5
										c0-0.6,0-1.3-0.1-1.9L99.9,427.6z M65.4,451.5c-4.1,0-8.1-1.2-11.5-3.5s-6-5.5-7.6-9.3s-2-7.9-1.2-11.9s2.8-7.7,5.6-10.6
										c2.9-2.9,6.6-4.9,10.6-5.6c4-0.8,8.2-0.4,11.9,1.2c3.8,1.6,7,4.2,9.3,7.6s3.5,7.4,3.5,11.5c0,5.5-2.2,10.7-6.1,14.6
										C76.2,449.3,70.9,451.5,65.4,451.5z"/>
									<path class="st5" d="M462.5,551.9c-0.1,0.1-0.3,0.2-0.4,0.3c-0.2,0.1-0.3,0.1-0.5,0.1s-0.3,0-0.5-0.1s-0.3-0.2-0.4-0.3
										l-11.8-15.3l5.2-5.2l7.5,9.7l17.3-22.5l5.2,5.2L462.5,551.9z"/>
									<path class="st5" d="M417.4,246.7c-0.3,0.1-0.5,0.3-0.7,0.6s-0.2,0.6-0.2,0.9v1.9c0,0.1,0,0.3,0.1,0.4
										c0.1,0.1,0.2,0.2,0.3,0.3c0.1,0.1,0.3,0.1,0.4,0.1s0.3,0,0.4-0.1c6.1-2.9,15.8-6.1,24.5-6.1c3.5-0.1,6.9,0.6,10.1,2.1
										c0.1,0.1,0.3,0.1,0.4,0.1s0.3-0.1,0.4-0.1c0.1-0.1,0.2-0.2,0.3-0.3c0.1-0.1,0.1-0.3,0.1-0.4v-1.9c0-0.3-0.1-0.6-0.3-0.9
										c-0.2-0.3-0.4-0.5-0.7-0.6c-3.3-1.3-6.8-1.9-10.4-1.8C433.3,240.9,423.8,243.9,417.4,246.7z"/>
									<path class="st5" d="M417.4,236.1c-0.3,0.1-0.5,0.3-0.7,0.6s-0.2,0.6-0.2,0.9v1.9c0,0.1,0,0.3,0.1,0.4
										c0.1,0.1,0.2,0.2,0.3,0.3c0.1,0.1,0.3,0.1,0.4,0.1s0.3,0,0.4-0.1c6.1-2.9,15.8-6.1,24.5-6.1c3.5-0.1,6.9,0.6,10.1,2.1
										c0.1,0.1,0.3,0.1,0.4,0.1s0.3,0,0.4-0.1s0.2-0.2,0.3-0.3c0.1-0.1,0.1-0.3,0.1-0.4v-1.9c0-0.3-0.1-0.6-0.3-0.9
										c-0.2-0.3-0.4-0.5-0.7-0.6c-3.3-1.3-6.8-1.9-10.4-1.8C433.3,230.2,423.8,233.3,417.4,236.1z"/>
									<path class="st5" d="M417.4,225.5c-0.3,0.1-0.5,0.3-0.7,0.6s-0.2,0.6-0.2,0.9v1.9c0,0.1,0,0.3,0.1,0.4s0.2,0.2,0.3,0.3
										c0.1,0.1,0.3,0.1,0.4,0.1s0.3,0,0.4-0.1c6.1-2.9,15.8-6.1,24.5-6.1c3.5-0.1,6.9,0.6,10.1,2.1c0.1,0.1,0.3,0.1,0.4,0.1
										s0.3,0,0.4-0.1s0.2-0.2,0.3-0.3c0.1-0.1,0.1-0.3,0.1-0.4V223c0-0.3-0.1-0.6-0.3-0.9c-0.2-0.3-0.4-0.5-0.7-0.6
										c-3.3-1.3-6.8-1.9-10.4-1.8C433.3,219.6,423.8,222.7,417.4,225.5z"/>
									<path class="st5" d="M417.4,214.9c-0.3,0.1-0.5,0.3-0.7,0.6s-0.2,0.6-0.2,0.9v1.9c0,0.1,0,0.3,0.1,0.4s0.2,0.2,0.3,0.3
										c0.1,0.1,0.3,0.1,0.4,0.1s0.3,0,0.4-0.1c6.1-2.9,15.8-6.2,24.5-6.2c3.5-0.1,6.9,0.6,10.1,2.1c0.1,0.1,0.3,0.1,0.4,0.1
										s0.3,0,0.4-0.1s0.2-0.2,0.3-0.3c0.1-0.1,0.1-0.3,0.1-0.4v-1.9c0-0.3-0.1-0.6-0.3-0.9c-0.2-0.3-0.4-0.5-0.7-0.6
										c-3.3-1.3-6.8-1.9-10.4-1.8C433.3,209,423.8,212.1,417.4,214.9z"/>
									<path class="st5" d="M442.2,198.4c-8.9,0-18.4,3.1-24.8,5.9c-0.3,0.1-0.5,0.3-0.7,0.6s-0.2,0.6-0.2,0.9v1.9
										c0,0.1,0,0.3,0.1,0.4c0.1,0.1,0.2,0.2,0.3,0.3c0.1,0.1,0.3,0.1,0.4,0.1s0.3,0,0.4-0.1c6.1-2.9,15.8-6.1,24.5-6.1
										c3.5-0.1,6.9,0.6,10.1,2.1c0.1,0.1,0.3,0.1,0.4,0.1s0.3-0.1,0.4-0.1c0.1-0.1,0.2-0.2,0.3-0.3c0.1-0.1,0.1-0.3,0.1-0.4v-1.9
										c0-0.3-0.1-0.6-0.3-0.9c-0.2-0.3-0.4-0.5-0.7-0.6C449.2,198.9,445.7,198.3,442.2,198.4L442.2,198.4z"/>
									<path class="st5" d="M462,271.4c-4.1,0-8.1-1.2-11.4-3.6c-1.4-1-3.1-1.5-4.8-1.4l-37.1,2.2c-0.5,0-1-0.1-1.5-0.2
										c-0.5-0.2-0.9-0.4-1.3-0.8c-0.4-0.3-0.7-0.8-0.9-1.2c-0.2-0.5-0.3-1-0.3-1.5v-64.5c0-0.9,0.2-1.8,0.7-2.6s1.1-1.5,1.9-2
										c11.4-6.8,25.9-11.3,36.9-11.3c9.3,0,14.9,3,18.2,6.1c6.4-8.3,19.3-16.5,44.6-14.2c1.3,0.1,2.6,0.7,3.4,1.7
										c0.9,1,1.4,2.3,1.4,3.6v10.7c2.2,1.1,4.3,2.2,6.2,3.3c0.8,0.5,1.4,1.2,1.9,2s0.7,1.7,0.7,2.6v64.6c0,0.5-0.1,1-0.3,1.5
										s-0.5,0.9-0.9,1.2c-0.4,0.3-0.8,0.6-1.3,0.8c-0.5,0.2-1,0.3-1.5,0.2l-40.1-2.3c-0.8,0-1.6,0.2-2.2,0.7
										C470.9,269.9,466.5,271.4,462,271.4z M446.2,262.1c2.4,0,4.8,0.8,6.8,2.2c2.8,1.9,6.1,2.9,9.5,2.8s6.6-1.3,9.3-3.4
										c1.4-1.2,3.3-1.7,5.1-1.6l39.6,2.2v-64c0-0.2,0-0.3-0.1-0.5s-0.2-0.3-0.4-0.4c-2.3-1.3-4.6-2.6-7-3.7l-1.3-0.6v-13.5
										c0-0.3-0.1-0.5-0.3-0.7c-0.2-0.2-0.4-0.3-0.7-0.3c-25.6-2.4-37.1,6.6-42.3,14.4l-1.7,2.5l-1.9-2.4c-2.3-3-7.2-6.6-16.7-6.6
										c-11.7,0-25.8,5.4-34.7,10.7c-0.1,0.1-0.3,0.2-0.4,0.4s-0.1,0.3-0.1,0.5v64L446.2,262.1z"/>
									<path class="st5" d="M407.5,268.2l-0.3-4.3c2.5-0.2,7.2-1.8,12.7-3.7c14-4.9,33-11.5,42.7-3.4c11.9-11.8,32.8-10.2,43-9.4
										l1,0.1c0.1,0,0.3,0,0.4,0s0.3-0.1,0.4-0.2c0.2-0.2,0.3-0.5,0.3-0.7V194h4.3v52.6c0,0.7-0.2,1.5-0.5,2.1
										c-0.3,0.7-0.7,1.3-1.3,1.8c-0.5,0.5-1.2,0.9-1.9,1.1c-0.7,0.2-1.4,0.3-2.2,0.3h-1c-9.8-0.8-30.1-2.4-40.4,9
										c-0.3,0.3-0.6,0.5-0.9,0.7c-0.4,0.2-0.7,0.3-1.1,0.3s-0.8-0.1-1.2-0.2c-0.4-0.2-0.7-0.4-1-0.7c-7.4-7.6-26.6-1-39.3,3.5
										C415.4,266.3,410.6,268,407.5,268.2z"/>
									<path class="st5" d="M517.2,266.9c-1.7-1.3-3.5-2.4-5.3-3.5c-3.5-2-15.8-8.8-28.4-9.5c-3.4-0.2-6.8,0-10.2,0.7l-0.8-4.2
										c3.7-0.7,7.5-1,11.3-0.7c13.4,0.8,26.6,7.9,30.2,10.1c2,1.2,3.9,2.4,5.8,3.8L517.2,266.9z"/>
									<path class="st5" d="M471.5,240.2c-0.2,0.2-0.5,0.4-0.6,0.7s-0.2,0.6-0.2,0.9v1.8c0,0.2,0,0.3,0.1,0.4
										c0.1,0.1,0.2,0.2,0.3,0.3c0.1,0.1,0.3,0.1,0.5,0.1s0.3-0.1,0.4-0.2c9-7,20.2-9.4,28.4-9.8c0.2,0,0.4-0.1,0.6-0.3
										s0.2-0.4,0.2-0.6v-1.9c0-0.1,0-0.2-0.1-0.3c0-0.1-0.1-0.2-0.2-0.3s-0.2-0.2-0.3-0.2c-0.1-0.1-0.2-0.1-0.4-0.1
										C492.1,231.3,480.9,233.7,471.5,240.2z"/>
									<path class="st5" d="M470.7,233.2c0,0.2,0,0.3,0.1,0.5c0.1,0.1,0.2,0.2,0.3,0.3c0.1,0.1,0.3,0.1,0.5,0.1s0.3-0.1,0.4-0.2
										c9-7,20.2-9.4,28.4-9.8c0.2,0,0.4-0.1,0.6-0.3s0.2-0.4,0.2-0.6v-1.9c0-0.1,0-0.2-0.1-0.3c0-0.1-0.1-0.2-0.2-0.3
										s-0.2-0.1-0.3-0.2c-0.1,0-0.2-0.1-0.3-0.1c-8.3,0.4-19.5,2.8-28.8,9.3c-0.3,0.2-0.5,0.4-0.6,0.7s-0.2,0.6-0.2,0.9V233.2z"
										/>
									<path class="st5" d="M470.7,222.7c0,0.2,0,0.3,0.1,0.4c0.1,0.1,0.2,0.2,0.3,0.3c0.1,0.1,0.3,0.1,0.5,0.1s0.3-0.1,0.4-0.2
										c9-7,20.2-9.4,28.4-9.8c0.2,0,0.4-0.1,0.6-0.3s0.2-0.4,0.2-0.6v-1.9c0-0.1,0-0.2-0.1-0.3c0-0.1-0.1-0.2-0.2-0.3
										s-0.2-0.1-0.3-0.2c-0.1,0-0.2-0.1-0.3-0.1c-8.3,0.4-19.5,2.8-28.8,9.3c-0.3,0.2-0.5,0.4-0.6,0.7s-0.2,0.6-0.2,0.9V222.7z"
										/>
									<path class="st5" d="M470.7,212.3c0,0.2,0,0.3,0.1,0.5c0.1,0.1,0.2,0.2,0.3,0.3c0.1,0.1,0.3,0.1,0.5,0.1s0.3-0.1,0.4-0.2
										c9-7,20.2-9.4,28.4-9.8c0.2,0,0.4-0.1,0.6-0.3s0.2-0.4,0.2-0.6v-1.9c0-0.1,0-0.2-0.1-0.3c0-0.1-0.1-0.2-0.2-0.3
										s-0.2-0.1-0.3-0.2c-0.1,0-0.2-0.1-0.3-0.1c-8.3,0.4-19.5,2.8-28.8,9.3c-0.3,0.2-0.5,0.4-0.6,0.7s-0.2,0.6-0.2,0.9V212.3z"
										/>
									<path class="st5" d="M500.5,192.8c0.2,0,0.4-0.1,0.6-0.3s0.2-0.4,0.2-0.6V190c0-0.1,0-0.2-0.1-0.3c0-0.1-0.1-0.2-0.2-0.3
										s-0.2-0.1-0.3-0.2c-0.1,0-0.2-0.1-0.3-0.1c-8.3,0.4-19.5,2.8-28.8,9.3c-0.3,0.2-0.5,0.4-0.6,0.7s-0.2,0.6-0.2,0.9v1.8
										c0,0.2,0,0.3,0.1,0.4c0.1,0.1,0.2,0.2,0.3,0.3c0.1,0.1,0.3,0.1,0.5,0.1s0.3-0.1,0.4-0.2
										C481.1,195.6,492.3,193.2,500.5,192.8z"/>
									<path class="st5" d="M464.8,194h-4.3v65.8h4.3V194z"/>
									<path class="st5" d="M286.9,349.8c-2.2,0-4.3,0.6-6.1,1.9c-1.8,1.2-3.2,2.9-4.1,4.9c-0.8,2-1,4.2-0.6,6.4
										c0.4,2.1,1.5,4.1,3,5.6s3.5,2.6,5.6,3s4.3,0.2,6.4-0.6c2-0.8,3.7-2.2,4.9-4.1c1.2-1.8,1.9-3.9,1.8-6.1
										c0-2.9-1.2-5.7-3.2-7.8C292.6,350.9,289.8,349.8,286.9,349.8L286.9,349.8z"/>
									<path class="st5" d="M286.9,385.8c-34.6,0-61.8-11-61.8-25.1s27.1-25.1,61.8-25.1s61.8,11,61.8,25.1
										C348.6,374.8,321.5,385.8,286.9,385.8z M286.9,340c-34.4,0-57.5,10.7-57.5,20.7s23,20.8,57.5,20.8s57.4-10.7,57.4-20.8
										C344.3,350.8,321.2,340,286.9,340z"/>
									<path class="st5" d="M311.8,415.8c-12.8,0-31.8-16.9-46.6-42.5c-8.1-14-13.6-28.4-15.5-40.6c-2-12.9,0.2-21.9,6.4-25.4
										c6.1-3.5,15.1-1,25.2,7.2c9.6,7.7,19.3,19.7,27.4,33.7c17.3,30,21.4,59,9.2,66C315.9,415.3,313.9,415.8,311.8,415.8
										L311.8,415.8z M262.1,310c-1.4,0-2.8,0.3-4,1c-4.4,2.5-5.9,10.2-4.2,21c1.8,11.6,7.2,25.5,15,39.1
										c17.2,29.8,38,44.4,46.7,39.4s6.4-30.4-10.8-60.1c-7.8-13.6-17.2-25.1-26.4-32.5C272.1,312.7,266.4,310,262.1,310z"/>
									<path class="st5" d="M262,415.8c-2.1,0-4.2-0.5-6-1.5c-6.1-3.5-8.4-12.6-6.4-25.4c1.9-12.2,7.4-26.6,15.5-40.6
										s17.8-26,27.4-33.7c10.1-8.2,19.1-10.8,25.2-7.2c12.2,7,8.1,36-9.2,66C293.8,398.9,274.8,415.8,262,415.8z M311.7,310
										c-4.3,0-10.1,2.7-16.4,7.8c-9.2,7.4-18.5,19-26.4,32.5c-7.8,13.6-13.2,27.5-15,39.1c-1.7,10.8-0.2,18.5,4.2,21
										c1.2,0.7,2.6,1,3.9,1c10.1,0,27.8-14.4,42.7-40.3c17.2-29.8,19.4-55.1,10.8-60.1C314.4,310.3,313.1,310,311.7,310
										L311.7,310z"/>
									<path class="st5" d="M316.8,314c-1.1,0-2.2-0.3-3.1-0.9s-1.6-1.5-2-2.5s-0.5-2.1-0.3-3.2s0.7-2.1,1.5-2.8
										c0.8-0.8,1.8-1.3,2.8-1.5c1.1-0.2,2.2-0.1,3.2,0.3s1.9,1.1,2.5,2s0.9,2,0.9,3.1c0,1.5-0.6,2.9-1.6,3.9
										C319.7,313.4,318.3,314,316.8,314L316.8,314z"/>
									<path class="st5" d="M227.3,366.3c-1.1,0-2.2-0.3-3.1-0.9c-0.9-0.6-1.6-1.5-2-2.5s-0.5-2.1-0.3-3.2s0.7-2.1,1.5-2.8
										c0.8-0.8,1.8-1.3,2.8-1.5c1.1-0.2,2.2-0.1,3.2,0.3s1.9,1.1,2.5,2s0.9,2,0.9,3.1c0,1.5-0.6,2.9-1.6,3.9
										C230.1,365.7,228.7,366.3,227.3,366.3z"/>
									<path class="st5" d="M314.9,268.2l-2.8,2.9l-6.2-5.9l5.6-5.9l6.2,5.9L314.9,268.2z"/>
									<path class="st5" d="M353.3,293.3l-31.5-29.8c-0.4-0.4-0.9-0.7-1.4-0.9c-0.5-0.2-1.1-0.3-1.6-0.3s-1.1,0.1-1.6,0.4
										c-0.5,0.2-1,0.5-1.3,0.9l-5.6,5.9c-0.4,0.4-0.7,0.9-0.9,1.4c-0.2,0.5-0.3,1.1-0.3,1.6s0.1,1.1,0.4,1.6
										c0.2,0.5,0.5,1,0.9,1.3l31.5,29.8c0.8,0.7,1.8,1.1,2.9,1.1h0.1c1.1,0,2.1-0.5,2.9-1.3l5.6-5.9c0.4-0.4,0.7-0.9,0.9-1.4
										s0.3-1.1,0.3-1.6C354.5,295.1,354.1,294.1,353.3,293.3L353.3,293.3z M344.8,302.1l-31.3-29.6l5.4-5.8l31.3,29.6
										L344.8,302.1z"/>
									<path class="st5" d="M314.1,203.7c0-0.1-0.1-0.3-0.2-0.3c-0.1-0.1-0.2-0.1-0.4-0.2c-2.9-0.1-5.6-0.9-8.2-2.1
										c-2.4-1.4-4.5-3.3-6.1-5.6c-0.1-0.1-0.2-0.2-0.4-0.2c-0.1,0-0.3,0-0.4,0s-0.3,0.1-0.3,0.2c-0.1,0.1-0.1,0.2-0.2,0.4
										c-0.2,2.8-0.9,5.5-2.2,8c-1.3,2.5-3.1,4.6-5.3,6.2c-0.1,0.1-0.2,0.2-0.3,0.3c0,0.1-0.1,0.3,0,0.4c0,0.1,0.1,0.3,0.2,0.4
										c0.1,0.1,0.3,0.1,0.4,0.2c2.7,0.1,5.4,0.8,7.8,2.1c2.4,1.6,4.4,3.5,6.2,5.8c0.1,0.1,0.2,0.2,0.4,0.2c0.1,0,0.3,0,0.4,0
										s0.3-0.1,0.4-0.2c0.1-0.1,0.1-0.3,0.1-0.4c0.1-2.8,0.8-5.6,2.1-8.2c1.6-2.4,3.5-4.5,5.8-6.2c0.1-0.1,0.2-0.2,0.2-0.4
										C314.1,204,314.1,203.9,314.1,203.7L314.1,203.7z"/>
									<path class="st5" d="M311,219c4.4,6.4,6.4,14.1,5.7,21.9c-0.6,7.7-3.9,15-9.3,20.6s-12.5,9.2-20.2,10.1
										c-7.7,1-15.5-0.7-22.1-4.8c-6.6-4.1-11.6-10.3-14.1-17.7c-2.5-7.3-2.5-15.3,0.2-22.6c2.6-7.3,7.7-13.5,14.4-17.5
										c6.6-4,14.5-5.6,22.2-4.5c1-1.2,1.9-2.6,2.6-3.9c-2.8-0.5-5.6-0.8-8.5-0.7c-10,0.4-19.4,4.6-26.3,11.9
										c-6.9,7.2-10.6,16.9-10.5,26.8c0.1,10,4.2,19.5,11.2,26.6c7.1,7,16.6,11,26.6,11.1h1.1c7.1-0.2,13.9-2.3,19.9-6.2
										c5.9-3.9,10.6-9.3,13.7-15.7c3-6.4,4.2-13.5,3.4-20.5c-0.8-7-3.5-13.7-7.9-19.3C312.3,215.9,311.6,217.4,311,219z"/>
									<path class="st5" d="M208.4,312.7c-0.1-0.1-0.3-0.1-0.4,0c-0.1,0-0.3,0.1-0.4,0.2L110,410.5c-0.1,0.1-0.2,0.2-0.2,0.4
										c0,0.1,0,0.3,0,0.4c0.1,0.1,0.1,0.2,0.3,0.3c0.1,0.1,0.3,0.1,0.4,0.1h97.6c0.2,0,0.4-0.1,0.5-0.2s0.2-0.3,0.2-0.5v-97.6
										c0-0.1,0-0.3-0.1-0.4C208.7,312.9,208.6,312.8,208.4,312.7z M204.6,407.3h-6v-2.6c0-0.2-0.1-0.4-0.2-0.5
										c-0.1-0.1-0.3-0.2-0.5-0.2H195c-0.2,0-0.4,0.1-0.5,0.2s-0.2,0.3-0.2,0.5v2.6h-4.6v-6.6c0-0.2-0.1-0.4-0.2-0.5
										c-0.1-0.1-0.3-0.2-0.5-0.2h-2.9c-0.2,0-0.4,0.1-0.5,0.2s-0.2,0.3-0.2,0.5v6.6h-4.6v-2.6c0-0.2-0.1-0.4-0.2-0.5
										c-0.1-0.1-0.3-0.2-0.5-0.2h-2.9c-0.2,0-0.4,0.1-0.5,0.2s-0.2,0.3-0.2,0.5v2.6h-4.6v-6.6c0-0.2-0.1-0.4-0.2-0.5
										c-0.1-0.1-0.3-0.2-0.5-0.2h-2.9c-0.2,0-0.4,0.1-0.5,0.2s-0.2,0.3-0.2,0.5v6.6H163v-2.6c0-0.2-0.1-0.4-0.2-0.5
										c-0.1-0.1-0.3-0.2-0.5-0.2h-2.9c-0.2,0-0.4,0.1-0.5,0.2s-0.2,0.3-0.2,0.5v2.6h-4.6v-6.6c0-0.2-0.1-0.4-0.2-0.5
										s-0.3-0.2-0.5-0.2h-2.9c-0.2,0-0.4,0.1-0.5,0.2s-0.2,0.3-0.2,0.5v6.6h-4.6v-2.6c0-0.2-0.1-0.4-0.2-0.5
										c-0.1-0.1-0.3-0.2-0.5-0.2h-2.9c-0.2,0-0.4,0.1-0.5,0.2s-0.2,0.3-0.2,0.5v2.6h-4.6v-6.6c0-0.2-0.1-0.4-0.2-0.5
										c-0.1-0.1-0.3-0.2-0.5-0.2h-2.9c-0.2,0-0.4,0.1-0.5,0.2s-0.2,0.3-0.2,0.5v6.6h-12.7l85.3-85.3L204.6,407.3L204.6,407.3z"/>
									<path class="st5" d="M148.7,395.9h43.6c0.2,0,0.4-0.1,0.5-0.2s0.2-0.3,0.2-0.5v-43.6c0-0.1,0-0.3-0.1-0.4s-0.2-0.2-0.3-0.3
										s-0.3-0.1-0.4,0c-0.1,0-0.3,0.1-0.4,0.2l-43.6,43.6c-0.1,0.1-0.2,0.2-0.2,0.4c0,0.1,0,0.3,0,0.4c0.1,0.1,0.1,0.2,0.3,0.3
										C148.5,395.8,148.6,395.9,148.7,395.9L148.7,395.9z M188.8,360.2v31.3h-31.3L188.8,360.2z"/>
									<path class="st5" d="M546.3,517.8h-9.8c-0.4,0-0.7,0.3-0.7,0.7v33.9c0,0.4,0.3,0.7,0.7,0.7h9.8c0.4,0,0.7-0.3,0.7-0.7
										v-33.9C547,518.2,546.7,517.8,546.3,517.8z"/>
									<path class="st5" d="M564.5,493.5h-9.8c-0.4,0-0.7,0.3-0.7,0.7v58.3c0,0.4,0.3,0.7,0.7,0.7h9.8c0.4,0,0.7-0.3,0.7-0.7
										v-58.3C565.2,493.8,564.9,493.5,564.5,493.5z"/>
									<path class="st5" d="M304.5,441h2.9c0.2,0,0.4-0.1,0.5-0.2s0.2-0.3,0.2-0.5v-4.7c0-1-0.4-1.9-1.1-2.6s-1.6-1.1-2.6-1.1
										h-35.7c-0.5,0-1,0.1-1.4,0.4s-0.7,0.6-0.9,1.1s-0.3,0.9-0.2,1.4c0.1,0.5,0.3,0.9,0.6,1.3l17,18.4L266.9,473
										c-0.3,0.4-0.5,0.8-0.6,1.3s0,1,0.2,1.4s0.5,0.8,0.9,1.1c0.4,0.3,0.9,0.4,1.4,0.4h35.6c1,0,1.9-0.4,2.6-1.1s1.1-1.6,1.1-2.6
										v-4.7c0-0.2-0.1-0.4-0.2-0.5s-0.3-0.2-0.5-0.2h-2.9c-0.2,0-0.4,0.1-0.5,0.2s-0.2,0.3-0.2,0.5v4H273l15.4-16.6
										c0.1-0.1,0.2-0.3,0.2-0.5v-2.4c0-0.1,0-0.2-0.1-0.3c0-0.1-0.1-0.2-0.2-0.2l-15.4-16.6h30.8v4c0,0.1,0,0.2,0,0.3
										c0,0.1,0.1,0.2,0.2,0.3c0.1,0.1,0.2,0.1,0.3,0.2S304.4,441.1,304.5,441z"/>
									<path class="st5" d="M121.3,124.8l8.3-8.3c0.1-0.1,0.1-0.1,0.2-0.2c0-0.1,0.1-0.2,0.1-0.3c0-0.1,0-0.2-0.1-0.3
										c0-0.1-0.1-0.2-0.2-0.2l-2-2c-0.1-0.1-0.3-0.2-0.5-0.2s-0.4,0.1-0.5,0.2l-8.3,8.3l-8.3-8.3c-0.1-0.1-0.3-0.2-0.5-0.2
										s-0.4,0.1-0.5,0.2l-2,2c-0.1,0.1-0.1,0.1-0.2,0.2c0,0.1-0.1,0.2-0.1,0.3c0,0.1,0,0.2,0.1,0.3c0,0.1,0.1,0.2,0.2,0.2
										l8.3,8.3l-8.3,8.4c-0.1,0.1-0.1,0.1-0.2,0.2c0,0.1-0.1,0.2-0.1,0.3s0,0.2,0.1,0.3c0,0.1,0.1,0.2,0.2,0.2l2,2
										c0.1,0.1,0.3,0.2,0.5,0.2s0.4-0.1,0.5-0.2l8.3-8.3l8.3,8.3c0.1,0.1,0.3,0.2,0.5,0.2s0.4-0.1,0.5-0.2l2-2
										c0.1-0.1,0.1-0.1,0.2-0.2c0-0.1,0.1-0.2,0.1-0.3s0-0.2-0.1-0.3c0-0.1-0.1-0.2-0.2-0.2L121.3,124.8z"/>
									<path class="st5" d="M374.5,483.5l-3.1-8.1c-2.1-0.1-4.2-0.4-6.3-0.9l-5.1,7l-11.5-5.5l2.2-8.4c-1.7-1.3-3.2-2.7-4.6-4.3
										l-8.3,2.7l-6.1-11.3l6.7-5.4c-0.6-2-0.9-4.1-1.1-6.2l-8.3-2.7l1.7-12.7l8.6-0.4c0.7-2,1.6-3.9,2.7-5.8l-5.1-7l8.8-9.3
										l7.3,4.7c1.8-1.2,3.6-2.2,5.6-3v-8.6l12.6-2.3l3.1,8.1c2.1,0.1,4.2,0.4,6.3,0.9l5.1-7l11.5,5.5l-2.2,8.3
										c1.6,1.3,3.2,2.8,4.6,4.3l8.3-2.7l6.1,11.3l-6.7,5.4c0.6,2,0.9,4.1,1.1,6.2l8.3,2.7l-1.7,12.7l-8.6,0.5
										c-0.7,2-1.6,3.9-2.7,5.8l5.1,7l-8.9,9.2l-7.3-4.7c-1.8,1.2-3.6,2.2-5.6,3v8.6L374.5,483.5z M363.3,469.6l1.4,0.4
										c2.6,0.7,5.4,1.1,8.1,1.1h1.4l2.9,7.5l5.5-1v-8l1.4-0.5c2.6-1,5-2.3,7.2-3.9l1.2-0.9l6.7,4.3l3.9-4.1l-4.7-6.5l0.8-1.2
										c1.5-2.3,2.7-4.8,3.5-7.4l0.5-1.4l8-0.4l0.7-5.6l-7.6-2.5l-0.1-1.4c-0.2-2.7-0.6-5.3-1.4-7.9c0-0.1-0.1-0.1-0.1-0.2
										l-0.5-1.4l6.2-5l-2.7-5l-7.6,2.5l-0.9-1.2c-1.7-2.1-3.7-4-5.9-5.6l-1.2-0.9l2.1-7.7l-5.1-2.4l-4.7,6.5l-1.4-0.4
										c-2.6-0.7-5.4-1.1-8.1-1.1h-1.4l-2.9-7.5l-5.5,1v8l-1.4,0.5c-2.6,1-5,2.3-7.2,3.9l-1.2,0.9l-6.7-4.3l-3.9,4.1l4.7,6.5
										l-0.8,1.3c-1.5,2.3-2.7,4.8-3.5,7.4l-0.5,1.4l-8,0.4l-0.7,5.6l7.6,2.5l0.1,1.4c0.1,2.7,0.6,5.3,1.4,7.8
										c0,0.1,0.1,0.1,0.1,0.2l0.4,1.4l-6.2,5l2.7,5l7.6-2.5l0.9,1.2c1.7,2.1,3.7,4,5.9,5.6l1.2,0.9l-2.1,7.8l5.1,2.4L363.3,469.6
										z M372.9,454.6c-2.9,0-5.8-0.9-8.3-2.5s-4.4-4-5.5-6.7s-1.4-5.7-0.9-8.6c0.6-2.9,2-5.6,4.1-7.6c2.1-2.1,4.7-3.5,7.6-4.1
										s5.9-0.3,8.6,0.8c2.7,1.1,5.1,3,6.7,5.5c1.6,2.4,2.5,5.3,2.5,8.3c0,2-0.4,3.9-1.1,5.7c-0.7,1.8-1.8,3.5-3.2,4.9
										c-1.4,1.4-3,2.5-4.8,3.2C376.8,454.2,374.9,454.6,372.9,454.6z M372.9,429.1c-2.1,0-4.1,0.6-5.9,1.8
										c-1.7,1.2-3.1,2.8-3.9,4.8c-0.8,1.9-1,4.1-0.6,6.1c0.4,2.1,1.4,3.9,2.9,5.4s3.4,2.5,5.4,2.9c2.1,0.4,4.2,0.2,6.1-0.6
										c1.9-0.8,3.6-2.2,4.8-3.9c1.2-1.7,1.8-3.8,1.8-5.9c0-1.4-0.3-2.8-0.8-4.1c-0.5-1.3-1.3-2.5-2.3-3.4c-1-1-2.2-1.8-3.4-2.3
										C375.7,429.3,374.3,429.1,372.9,429.1L372.9,429.1z"/>
								</g>
							</g>
						</g>
					</g>
				</g>
			</g>
		</g>
	</g>
</g>
<rect x="16.7" y="59" class="st6" width="527.5" height="453"/>
<text transform="matrix(1 0 0 1 115.9326 119.8789)"><tspan x="0" y="0" class="st7 st8 st9">Digraphs </tspan><tspan x="-0.8" y="96" class="st7 st8 st9">&amp; Blends</tspan><tspan x="50" y="252" class="st1 st8 st10">Part 1 of 2</tspan></text>
</svg>
